<?xml version="1.0" encoding="UTF-8" standalone="no"?>
<!DOCTYPE svg PUBLIC "-//W3C//DTD SVG 1.1//EN"
 "http://www.w3.org/Graphics/SVG/1.1/DTD/svg11.dtd">
<!-- Generated by graphviz version 2.43.0 (0)
 -->
<!-- Title: graph_name Pages: 1 -->
<svg width="2122pt" height="193pt"
 viewBox="0.00 0.00 2122.00 193.00" xmlns="http://www.w3.org/2000/svg" xmlns:xlink="http://www.w3.org/1999/xlink">
<g id="graph0" class="graph" transform="scale(1 1) rotate(0) translate(4 189)">
<title>graph_name</title>
<polygon fill="white" stroke="transparent" points="-4,4 -4,-189 2118,-189 2118,4 -4,4"/>
<!-- node_0 -->
<g id="node1" class="node">
<title>node_0</title>
<polygon fill="white" stroke="white" points="36,-182 0,-182 0,-160 36,-160 36,-182"/>
<text text-anchor="middle" x="18" y="-167.9" font-family="Migu 1M" font-size="12.00">q_0</text>
</g>
<!-- node_1 -->
<g id="node2" class="node">
<title>node_1</title>
<polygon fill="white" stroke="white" points="36,-142 0,-142 0,-120 36,-120 36,-142"/>
<text text-anchor="middle" x="18" y="-127.9" font-family="Migu 1M" font-size="12.00">q_1</text>
</g>
<!-- node_0&#45;&#45;node_1 -->
<g id="edge1" class="edge">
<title>node_0&#45;&#45;node_1</title>
<path fill="none" stroke="white" d="M18,-159.77C18,-153.93 18,-148.09 18,-142.25"/>
</g>
<!-- node_15 -->
<g id="node16" class="node">
<title>node_15</title>
<ellipse fill="black" stroke="black" cx="295" cy="-167" rx="3.5" ry="3.5"/>
</g>
<!-- node_0&#45;&#45;node_15 -->
<g id="edge15" class="edge">
<title>node_0&#45;&#45;node_15</title>
<path fill="none" stroke="black" d="M36.2,-170.75C92.41,-169.93 268.36,-167.37 291.48,-167.04"/>
</g>
<!-- node_2 -->
<g id="node3" class="node">
<title>node_2</title>
<polygon fill="white" stroke="white" points="36,-102 0,-102 0,-80 36,-80 36,-102"/>
<text text-anchor="middle" x="18" y="-87.9" font-family="Migu 1M" font-size="12.00">q_2</text>
</g>
<!-- node_1&#45;&#45;node_2 -->
<g id="edge2" class="edge">
<title>node_1&#45;&#45;node_2</title>
<path fill="none" stroke="white" d="M18,-119.77C18,-113.93 18,-108.09 18,-102.25"/>
</g>
<!-- node_12 -->
<g id="node13" class="node">
<title>node_12</title>
<ellipse fill="black" stroke="black" cx="162" cy="-129" rx="3.5" ry="3.5"/>
</g>
<!-- node_1&#45;&#45;node_12 -->
<g id="edge11" class="edge">
<title>node_1&#45;&#45;node_12</title>
<path fill="none" stroke="black" d="M36.13,-130.76C70.06,-130.28 143.82,-129.24 158.45,-129.04"/>
</g>
<!-- node_3 -->
<g id="node4" class="node">
<title>node_3</title>
<polygon fill="white" stroke="white" points="36,-62 0,-62 0,-40 36,-40 36,-62"/>
<text text-anchor="middle" x="18" y="-47.9" font-family="Migu 1M" font-size="12.00">q_3</text>
</g>
<!-- node_2&#45;&#45;node_3 -->
<g id="edge3" class="edge">
<title>node_2&#45;&#45;node_3</title>
<path fill="none" stroke="white" d="M18,-79.77C18,-73.93 18,-68.09 18,-62.25"/>
</g>
<!-- node_34 -->
<g id="node35" class="node">
<title>node_34</title>
<ellipse fill="black" stroke="black" cx="827" cy="-91" rx="3.5" ry="3.5"/>
</g>
<!-- node_2&#45;&#45;node_34 -->
<g id="edge40" class="edge">
<title>node_2&#45;&#45;node_34</title>
<path fill="none" stroke="black" d="M36.05,-91C62.71,-91 115.89,-91 161,-91 161,-91 161,-91 695,-91 746.4,-91 809.14,-91 823.14,-91"/>
</g>
<!-- node_4 -->
<g id="node5" class="node">
<title>node_4</title>
<polygon fill="white" stroke="white" points="36,-22 0,-22 0,0 36,0 36,-22"/>
<text text-anchor="middle" x="18" y="-7.9" font-family="Migu 1M" font-size="12.00">q_4</text>
</g>
<!-- node_3&#45;&#45;node_4 -->
<g id="edge4" class="edge">
<title>node_3&#45;&#45;node_4</title>
<path fill="none" stroke="white" d="M18,-39.77C18,-33.93 18,-28.09 18,-22.25"/>
</g>
<!-- node_10 -->
<g id="node11" class="node">
<title>node_10</title>
<polygon fill="white" stroke="black" points="180,-63 144,-63 144,-41 180,-41 180,-63"/>
<text text-anchor="middle" x="162" y="-48.9" font-family="Migu 1M" font-size="12.00">H</text>
</g>
<!-- node_3&#45;&#45;node_10 -->
<g id="edge9" class="edge">
<title>node_3&#45;&#45;node_10</title>
<path fill="none" stroke="black" d="M36.13,-51.12C63.42,-51.31 116.48,-51.69 143.81,-51.88"/>
</g>
<!-- node_11 -->
<g id="node12" class="node">
<title>node_11</title>
<polygon fill="white" stroke="black" points="108,-22 72,-22 72,0 108,0 108,-22"/>
<text text-anchor="middle" x="90" y="-7.9" font-family="Migu 1M" font-size="12.00">H</text>
</g>
<!-- node_4&#45;&#45;node_11 -->
<g id="edge10" class="edge">
<title>node_4&#45;&#45;node_11</title>
<path fill="none" stroke="black" d="M36.3,-11C47.15,-11 61.08,-11 71.9,-11"/>
</g>
<!-- node_5 -->
<g id="node6" class="node">
<title>node_5</title>
<polygon fill="white" stroke="white" points="2114,-185 2078,-185 2078,-163 2114,-163 2114,-185"/>
</g>
<!-- node_6 -->
<g id="node7" class="node">
<title>node_6</title>
<polygon fill="white" stroke="white" points="2114,-145 2078,-145 2078,-123 2114,-123 2114,-145"/>
</g>
<!-- node_5&#45;&#45;node_6 -->
<g id="edge5" class="edge">
<title>node_5&#45;&#45;node_6</title>
<path fill="none" stroke="white" d="M2096,-162.77C2096,-156.93 2096,-151.09 2096,-145.25"/>
</g>
<!-- node_7 -->
<g id="node8" class="node">
<title>node_7</title>
<polygon fill="white" stroke="white" points="2114,-105 2078,-105 2078,-83 2114,-83 2114,-105"/>
</g>
<!-- node_6&#45;&#45;node_7 -->
<g id="edge6" class="edge">
<title>node_6&#45;&#45;node_7</title>
<path fill="none" stroke="white" d="M2096,-122.77C2096,-116.93 2096,-111.09 2096,-105.25"/>
</g>
<!-- node_8 -->
<g id="node9" class="node">
<title>node_8</title>
<polygon fill="white" stroke="white" points="2114,-65 2078,-65 2078,-43 2114,-43 2114,-65"/>
</g>
<!-- node_7&#45;&#45;node_8 -->
<g id="edge7" class="edge">
<title>node_7&#45;&#45;node_8</title>
<path fill="none" stroke="white" d="M2096,-82.77C2096,-76.93 2096,-71.09 2096,-65.25"/>
</g>
<!-- node_9 -->
<g id="node10" class="node">
<title>node_9</title>
<polygon fill="white" stroke="white" points="2114,-25 2078,-25 2078,-3 2114,-3 2114,-25"/>
</g>
<!-- node_8&#45;&#45;node_9 -->
<g id="edge8" class="edge">
<title>node_8&#45;&#45;node_9</title>
<path fill="none" stroke="white" d="M2096,-42.77C2096,-36.93 2096,-31.09 2096,-25.25"/>
</g>
<!-- node_30 -->
<g id="node31" class="node">
<title>node_30</title>
<ellipse fill="white" stroke="black" cx="694" cy="-52" rx="7" ry="7"/>
<text text-anchor="middle" x="694" y="-48.9" font-family="Migu 1M" font-size="12.00">+</text>
</g>
<!-- node_10&#45;&#45;node_30 -->
<g id="edge34" class="edge">
<title>node_10&#45;&#45;node_30</title>
<path fill="none" stroke="black" d="M180.38,-52.22C205.46,-52.51 253.29,-53 294,-53 294,-53 294,-53 551,-53 603.51,-53 666.94,-52.31 686.77,-52.08"/>
</g>
<!-- node_13 -->
<g id="node14" class="node">
<title>node_13</title>
<ellipse fill="white" stroke="black" cx="162" cy="-14" rx="7" ry="7"/>
<text text-anchor="middle" x="162" y="-10.9" font-family="Migu 1M" font-size="12.00">+</text>
</g>
<!-- node_11&#45;&#45;node_13 -->
<g id="edge12" class="edge">
<title>node_11&#45;&#45;node_13</title>
<path fill="none" stroke="black" d="M108.3,-11.74C123.36,-12.39 144.36,-13.29 154.71,-13.73"/>
</g>
<!-- node_12&#45;&#45;node_13 -->
<g id="edge13" class="edge">
<title>node_12&#45;&#45;node_13</title>
<path fill="none" stroke="black" d="M158.57,-127.18C150.96,-122.93 132.83,-111.52 126,-96 116.16,-73.62 115.07,-62.86 126,-41 132.15,-28.7 146.86,-20.55 155.45,-16.66"/>
</g>
<!-- node_18 -->
<g id="node19" class="node">
<title>node_18</title>
<ellipse fill="black" stroke="black" cx="417" cy="-129" rx="3.5" ry="3.5"/>
</g>
<!-- node_12&#45;&#45;node_18 -->
<g id="edge19" class="edge">
<title>node_12&#45;&#45;node_18</title>
<path fill="none" stroke="black" d="M165.5,-129C190.14,-129 388.75,-129 413.48,-129"/>
</g>
<!-- node_14 -->
<g id="node15" class="node">
<title>node_14</title>
<polygon fill="white" stroke="black" points="252,-25 216,-25 216,-3 252,-3 252,-25"/>
<text text-anchor="middle" x="234" y="-10.9" font-family="Migu 1M" font-size="12.00">T+</text>
</g>
<!-- node_13&#45;&#45;node_14 -->
<g id="edge14" class="edge">
<title>node_13&#45;&#45;node_14</title>
<path fill="none" stroke="black" d="M169.46,-14C179.88,-14 200.76,-14 215.74,-14"/>
</g>
<!-- node_16 -->
<g id="node17" class="node">
<title>node_16</title>
<ellipse fill="white" stroke="black" cx="295" cy="-14" rx="7" ry="7"/>
<text text-anchor="middle" x="295" y="-10.9" font-family="Migu 1M" font-size="12.00">+</text>
</g>
<!-- node_14&#45;&#45;node_16 -->
<g id="edge16" class="edge">
<title>node_14&#45;&#45;node_16</title>
<path fill="none" stroke="black" d="M252.07,-14C264.04,-14 279.37,-14 287.78,-14"/>
</g>
<!-- node_15&#45;&#45;node_16 -->
<g id="edge17" class="edge">
<title>node_15&#45;&#45;node_16</title>
<path fill="none" stroke="black" d="M295,-163.3C295,-115.92 295,-68.55 295,-21.17"/>
</g>
<!-- node_22 -->
<g id="node23" class="node">
<title>node_22</title>
<ellipse fill="black" stroke="black" cx="550" cy="-165" rx="3.5" ry="3.5"/>
</g>
<!-- node_15&#45;&#45;node_22 -->
<g id="edge24" class="edge">
<title>node_15&#45;&#45;node_22</title>
<path fill="none" stroke="black" d="M298.5,-166.98C323.14,-166.79 521.75,-165.22 546.48,-165.02"/>
</g>
<!-- node_17 -->
<g id="node18" class="node">
<title>node_17</title>
<polygon fill="white" stroke="black" points="374,-25 338,-25 338,-3 374,-3 374,-25"/>
<text text-anchor="middle" x="356" y="-10.9" font-family="Migu 1M" font-size="12.00">T</text>
</g>
<!-- node_16&#45;&#45;node_17 -->
<g id="edge18" class="edge">
<title>node_16&#45;&#45;node_17</title>
<path fill="none" stroke="black" d="M302.31,-14C310.76,-14 326.04,-14 337.98,-14"/>
</g>
<!-- node_19 -->
<g id="node20" class="node">
<title>node_19</title>
<ellipse fill="white" stroke="black" cx="417" cy="-14" rx="7" ry="7"/>
<text text-anchor="middle" x="417" y="-10.9" font-family="Migu 1M" font-size="12.00">+</text>
</g>
<!-- node_17&#45;&#45;node_19 -->
<g id="edge20" class="edge">
<title>node_17&#45;&#45;node_19</title>
<path fill="none" stroke="black" d="M374.07,-14C386.04,-14 401.37,-14 409.78,-14"/>
</g>
<!-- node_18&#45;&#45;node_19 -->
<g id="edge21" class="edge">
<title>node_18&#45;&#45;node_19</title>
<path fill="none" stroke="black" d="M417,-125.21C417,-90.54 417,-55.86 417,-21.19"/>
</g>
<!-- node_20 -->
<g id="node21" class="node">
<title>node_20</title>
<polygon fill="white" stroke="black" points="568,-141 532,-141 532,-119 568,-119 568,-141"/>
<text text-anchor="middle" x="550" y="-126.9" font-family="Migu 1M" font-size="12.00">T</text>
</g>
<!-- node_18&#45;&#45;node_20 -->
<g id="edge22" class="edge">
<title>node_18&#45;&#45;node_20</title>
<path fill="none" stroke="black" d="M420.74,-129.02C434.85,-129.13 499.94,-129.63 531.6,-129.87"/>
</g>
<!-- node_21 -->
<g id="node22" class="node">
<title>node_21</title>
<polygon fill="white" stroke="black" points="496,-25 460,-25 460,-3 496,-3 496,-25"/>
<text text-anchor="middle" x="478" y="-10.9" font-family="Migu 1M" font-size="12.00">T+</text>
</g>
<!-- node_19&#45;&#45;node_21 -->
<g id="edge23" class="edge">
<title>node_19&#45;&#45;node_21</title>
<path fill="none" stroke="black" d="M424.31,-14C432.76,-14 448.04,-14 459.98,-14"/>
</g>
<!-- node_25 -->
<g id="node26" class="node">
<title>node_25</title>
<ellipse fill="white" stroke="black" cx="622" cy="-130" rx="7" ry="7"/>
<text text-anchor="middle" x="622" y="-126.9" font-family="Migu 1M" font-size="12.00">+</text>
</g>
<!-- node_20&#45;&#45;node_25 -->
<g id="edge28" class="edge">
<title>node_20&#45;&#45;node_25</title>
<path fill="none" stroke="black" d="M568.3,-130C583.36,-130 604.36,-130 614.71,-130"/>
</g>
<!-- node_23 -->
<g id="node24" class="node">
<title>node_23</title>
<ellipse fill="white" stroke="black" cx="550" cy="-14" rx="7" ry="7"/>
<text text-anchor="middle" x="550" y="-10.9" font-family="Migu 1M" font-size="12.00">+</text>
</g>
<!-- node_21&#45;&#45;node_23 -->
<g id="edge25" class="edge">
<title>node_21&#45;&#45;node_23</title>
<path fill="none" stroke="black" d="M496.3,-14C511.36,-14 532.36,-14 542.71,-14"/>
</g>
<!-- node_22&#45;&#45;node_23 -->
<g id="edge26" class="edge">
<title>node_22&#45;&#45;node_23</title>
<path fill="none" stroke="black" d="M546.6,-163.96C539.07,-161.44 521.09,-154.25 514,-141 490.86,-97.76 531.56,-38.07 545.54,-19.64"/>
</g>
<!-- node_24 -->
<g id="node25" class="node">
<title>node_24</title>
<ellipse fill="black" stroke="black" cx="622" cy="-165" rx="3.5" ry="3.5"/>
</g>
<!-- node_22&#45;&#45;node_24 -->
<g id="edge27" class="edge">
<title>node_22&#45;&#45;node_24</title>
<path fill="none" stroke="black" d="M553.66,-165C564.75,-165 607.25,-165 618.34,-165"/>
</g>
<!-- node_26 -->
<g id="node27" class="node">
<title>node_26</title>
<polygon fill="white" stroke="black" points="640,-25 604,-25 604,-3 640,-3 640,-25"/>
<text text-anchor="middle" x="622" y="-10.9" font-family="Migu 1M" font-size="12.00">T</text>
</g>
<!-- node_23&#45;&#45;node_26 -->
<g id="edge30" class="edge">
<title>node_23&#45;&#45;node_26</title>
<path fill="none" stroke="black" d="M557.46,-14C567.88,-14 588.76,-14 603.74,-14"/>
</g>
<!-- node_24&#45;&#45;node_25 -->
<g id="edge29" class="edge">
<title>node_24&#45;&#45;node_25</title>
<path fill="none" stroke="black" d="M622,-161.08C622,-153.09 622,-145.1 622,-137.11"/>
</g>
<!-- node_27 -->
<g id="node28" class="node">
<title>node_27</title>
<polygon fill="white" stroke="black" points="712,-181 676,-181 676,-159 712,-159 712,-181"/>
<text text-anchor="middle" x="694" y="-166.9" font-family="Migu 1M" font-size="12.00">T</text>
</g>
<!-- node_24&#45;&#45;node_27 -->
<g id="edge31" class="edge">
<title>node_24&#45;&#45;node_27</title>
<path fill="none" stroke="black" d="M625.66,-165.19C633.75,-165.77 658.57,-167.54 675.7,-168.76"/>
</g>
<!-- node_28 -->
<g id="node29" class="node">
<title>node_28</title>
<polygon fill="white" stroke="black" points="712,-141 676,-141 676,-119 712,-119 712,-141"/>
<text text-anchor="middle" x="694" y="-126.9" font-family="Migu 1M" font-size="12.00">T+</text>
</g>
<!-- node_25&#45;&#45;node_28 -->
<g id="edge32" class="edge">
<title>node_25&#45;&#45;node_28</title>
<path fill="none" stroke="black" d="M629.46,-130C639.88,-130 660.76,-130 675.74,-130"/>
</g>
<!-- node_29 -->
<g id="node30" class="node">
<title>node_29</title>
<ellipse fill="black" stroke="black" cx="694" cy="-14" rx="3.5" ry="3.5"/>
</g>
<!-- node_26&#45;&#45;node_29 -->
<g id="edge33" class="edge">
<title>node_26&#45;&#45;node_29</title>
<path fill="none" stroke="black" d="M640.3,-14C657.47,-14 682.34,-14 690.39,-14"/>
</g>
<!-- node_31 -->
<g id="node32" class="node">
<title>node_31</title>
<ellipse fill="black" stroke="black" cx="827" cy="-168" rx="3.5" ry="3.5"/>
</g>
<!-- node_27&#45;&#45;node_31 -->
<g id="edge36" class="edge">
<title>node_27&#45;&#45;node_31</title>
<path fill="none" stroke="black" d="M712.13,-169.74C743.75,-169.26 809.37,-168.25 823.35,-168.04"/>
</g>
<!-- node_32 -->
<g id="node33" class="node">
<title>node_32</title>
<ellipse fill="white" stroke="black" cx="827" cy="-130" rx="7" ry="7"/>
<text text-anchor="middle" x="827" y="-126.9" font-family="Migu 1M" font-size="12.00">+</text>
</g>
<!-- node_28&#45;&#45;node_32 -->
<g id="edge37" class="edge">
<title>node_28&#45;&#45;node_32</title>
<path fill="none" stroke="black" d="M712.13,-130C741.67,-130 800.88,-130 819.94,-130"/>
</g>
<!-- node_37 -->
<g id="node38" class="node">
<title>node_37</title>
<ellipse fill="black" stroke="black" cx="949" cy="-13" rx="3.5" ry="3.5"/>
</g>
<!-- node_29&#45;&#45;node_37 -->
<g id="edge44" class="edge">
<title>node_29&#45;&#45;node_37</title>
<path fill="none" stroke="black" d="M697.5,-13.99C722.14,-13.89 920.75,-13.11 945.48,-13.01"/>
</g>
<!-- node_30&#45;&#45;node_29 -->
<g id="edge35" class="edge">
<title>node_30&#45;&#45;node_29</title>
<path fill="none" stroke="black" d="M694,-44.74C694,-35.68 694,-26.62 694,-17.56"/>
</g>
<!-- node_33 -->
<g id="node34" class="node">
<title>node_33</title>
<polygon fill="white" stroke="black" points="784,-63 748,-63 748,-41 784,-41 784,-63"/>
<text text-anchor="middle" x="766" y="-48.9" font-family="Migu 1M" font-size="12.00">T+</text>
</g>
<!-- node_30&#45;&#45;node_33 -->
<g id="edge39" class="edge">
<title>node_30&#45;&#45;node_33</title>
<path fill="none" stroke="black" d="M701.46,-52C711.88,-52 732.76,-52 747.74,-52"/>
</g>
<!-- node_31&#45;&#45;node_32 -->
<g id="edge38" class="edge">
<title>node_31&#45;&#45;node_32</title>
<path fill="none" stroke="black" d="M827,-164.14C827,-155.14 827,-146.13 827,-137.12"/>
</g>
<!-- node_54 -->
<g id="node55" class="node">
<title>node_54</title>
<ellipse fill="black" stroke="black" cx="1553" cy="-168" rx="3.5" ry="3.5"/>
</g>
<!-- node_31&#45;&#45;node_54 -->
<g id="edge66" class="edge">
<title>node_31&#45;&#45;node_54</title>
<path fill="none" stroke="black" d="M830.62,-168C843.44,-168 900.92,-168 948,-168 948,-168 948,-168 1432,-168 1479.08,-168 1536.56,-168 1549.38,-168"/>
</g>
<!-- node_51 -->
<g id="node52" class="node">
<title>node_51</title>
<ellipse fill="black" stroke="black" cx="1431" cy="-130" rx="3.5" ry="3.5"/>
</g>
<!-- node_32&#45;&#45;node_51 -->
<g id="edge62" class="edge">
<title>node_32&#45;&#45;node_51</title>
<path fill="none" stroke="black" d="M834.5,-130C852.53,-130 904.67,-130 948,-130 948,-130 948,-130 1299,-130 1350.4,-130 1413.14,-130 1427.14,-130"/>
</g>
<!-- node_35 -->
<g id="node36" class="node">
<title>node_35</title>
<ellipse fill="white" stroke="black" cx="827" cy="-52" rx="7" ry="7"/>
<text text-anchor="middle" x="827" y="-48.9" font-family="Migu 1M" font-size="12.00">+</text>
</g>
<!-- node_33&#45;&#45;node_35 -->
<g id="edge41" class="edge">
<title>node_33&#45;&#45;node_35</title>
<path fill="none" stroke="black" d="M784.07,-52C796.04,-52 811.37,-52 819.78,-52"/>
</g>
<!-- node_34&#45;&#45;node_35 -->
<g id="edge42" class="edge">
<title>node_34&#45;&#45;node_35</title>
<path fill="none" stroke="black" d="M827,-87C827,-77.67 827,-68.34 827,-59.01"/>
</g>
<!-- node_41 -->
<g id="node42" class="node">
<title>node_41</title>
<ellipse fill="black" stroke="black" cx="1082" cy="-88" rx="3.5" ry="3.5"/>
</g>
<!-- node_34&#45;&#45;node_41 -->
<g id="edge49" class="edge">
<title>node_34&#45;&#45;node_41</title>
<path fill="none" stroke="black" d="M830.5,-90.97C855.14,-90.68 1053.75,-88.32 1078.48,-88.03"/>
</g>
<!-- node_36 -->
<g id="node37" class="node">
<title>node_36</title>
<polygon fill="white" stroke="black" points="906,-63 870,-63 870,-41 906,-41 906,-63"/>
<text text-anchor="middle" x="888" y="-48.9" font-family="Migu 1M" font-size="12.00">T</text>
</g>
<!-- node_35&#45;&#45;node_36 -->
<g id="edge43" class="edge">
<title>node_35&#45;&#45;node_36</title>
<path fill="none" stroke="black" d="M834.31,-52C842.76,-52 858.04,-52 869.98,-52"/>
</g>
<!-- node_38 -->
<g id="node39" class="node">
<title>node_38</title>
<ellipse fill="white" stroke="black" cx="949" cy="-52" rx="7" ry="7"/>
<text text-anchor="middle" x="949" y="-48.9" font-family="Migu 1M" font-size="12.00">+</text>
</g>
<!-- node_36&#45;&#45;node_38 -->
<g id="edge45" class="edge">
<title>node_36&#45;&#45;node_38</title>
<path fill="none" stroke="black" d="M906.07,-52C918.04,-52 933.37,-52 941.78,-52"/>
</g>
<!-- node_40 -->
<g id="node41" class="node">
<title>node_40</title>
<polygon fill="white" stroke="black" points="1100,-24 1064,-24 1064,-2 1100,-2 1100,-24"/>
<text text-anchor="middle" x="1082" y="-9.9" font-family="Migu 1M" font-size="12.00">T</text>
</g>
<!-- node_37&#45;&#45;node_40 -->
<g id="edge48" class="edge">
<title>node_37&#45;&#45;node_40</title>
<path fill="none" stroke="black" d="M952.74,-13C966.85,-13 1031.94,-13 1063.6,-13"/>
</g>
<!-- node_38&#45;&#45;node_37 -->
<g id="edge46" class="edge">
<title>node_38&#45;&#45;node_37</title>
<path fill="none" stroke="black" d="M949,-44.82C949,-35.43 949,-26.04 949,-16.66"/>
</g>
<!-- node_39 -->
<g id="node40" class="node">
<title>node_39</title>
<polygon fill="white" stroke="black" points="1028,-63 992,-63 992,-41 1028,-41 1028,-63"/>
<text text-anchor="middle" x="1010" y="-48.9" font-family="Migu 1M" font-size="12.00">T+</text>
</g>
<!-- node_38&#45;&#45;node_39 -->
<g id="edge47" class="edge">
<title>node_38&#45;&#45;node_39</title>
<path fill="none" stroke="black" d="M956.31,-52C964.76,-52 980.04,-52 991.98,-52"/>
</g>
<!-- node_42 -->
<g id="node43" class="node">
<title>node_42</title>
<ellipse fill="white" stroke="black" cx="1082" cy="-52" rx="7" ry="7"/>
<text text-anchor="middle" x="1082" y="-48.9" font-family="Migu 1M" font-size="12.00">+</text>
</g>
<!-- node_39&#45;&#45;node_42 -->
<g id="edge50" class="edge">
<title>node_39&#45;&#45;node_42</title>
<path fill="none" stroke="black" d="M1028.3,-52C1043.36,-52 1064.36,-52 1074.71,-52"/>
</g>
<!-- node_44 -->
<g id="node45" class="node">
<title>node_44</title>
<ellipse fill="white" stroke="black" cx="1154" cy="-13" rx="7" ry="7"/>
<text text-anchor="middle" x="1154" y="-9.9" font-family="Migu 1M" font-size="12.00">+</text>
</g>
<!-- node_40&#45;&#45;node_44 -->
<g id="edge53" class="edge">
<title>node_40&#45;&#45;node_44</title>
<path fill="none" stroke="black" d="M1100.3,-13C1115.36,-13 1136.36,-13 1146.71,-13"/>
</g>
<!-- node_41&#45;&#45;node_42 -->
<g id="edge51" class="edge">
<title>node_41&#45;&#45;node_42</title>
<path fill="none" stroke="black" d="M1082,-84.38C1082,-75.93 1082,-67.48 1082,-59.03"/>
</g>
<!-- node_43 -->
<g id="node44" class="node">
<title>node_43</title>
<ellipse fill="black" stroke="black" cx="1154" cy="-88" rx="3.5" ry="3.5"/>
</g>
<!-- node_41&#45;&#45;node_43 -->
<g id="edge52" class="edge">
<title>node_41&#45;&#45;node_43</title>
<path fill="none" stroke="black" d="M1085.66,-88C1096.75,-88 1139.25,-88 1150.34,-88"/>
</g>
<!-- node_46 -->
<g id="node47" class="node">
<title>node_46</title>
<polygon fill="white" stroke="black" points="1172,-63 1136,-63 1136,-41 1172,-41 1172,-63"/>
<text text-anchor="middle" x="1154" y="-48.9" font-family="Migu 1M" font-size="12.00">T</text>
</g>
<!-- node_42&#45;&#45;node_46 -->
<g id="edge56" class="edge">
<title>node_42&#45;&#45;node_46</title>
<path fill="none" stroke="black" d="M1089.46,-52C1099.88,-52 1120.76,-52 1135.74,-52"/>
</g>
<!-- node_43&#45;&#45;node_44 -->
<g id="edge54" class="edge">
<title>node_43&#45;&#45;node_44</title>
<path fill="none" stroke="black" d="M1150.6,-86.87C1143.06,-84.16 1125.05,-76.49 1118,-63 1113.47,-54.34 1113.7,-49.78 1118,-41 1124.12,-28.48 1138.84,-19.94 1147.44,-15.83"/>
</g>
<!-- node_45 -->
<g id="node46" class="node">
<title>node_45</title>
<polygon fill="white" stroke="black" points="1244,-102 1208,-102 1208,-80 1244,-80 1244,-102"/>
<text text-anchor="middle" x="1226" y="-87.9" font-family="Migu 1M" font-size="12.00">T</text>
</g>
<!-- node_43&#45;&#45;node_45 -->
<g id="edge55" class="edge">
<title>node_43&#45;&#45;node_45</title>
<path fill="none" stroke="black" d="M1157.66,-88.11C1165.75,-88.46 1190.57,-89.52 1207.7,-90.26"/>
</g>
<!-- node_47 -->
<g id="node48" class="node">
<title>node_47</title>
<polygon fill="white" stroke="black" points="1244,-24 1208,-24 1208,-2 1244,-2 1244,-24"/>
<text text-anchor="middle" x="1226" y="-9.9" font-family="Migu 1M" font-size="12.00">T+</text>
</g>
<!-- node_44&#45;&#45;node_47 -->
<g id="edge57" class="edge">
<title>node_44&#45;&#45;node_47</title>
<path fill="none" stroke="black" d="M1161.46,-13C1171.88,-13 1192.76,-13 1207.74,-13"/>
</g>
<!-- node_48 -->
<g id="node49" class="node">
<title>node_48</title>
<ellipse fill="black" stroke="black" cx="1298" cy="-91" rx="3.5" ry="3.5"/>
</g>
<!-- node_45&#45;&#45;node_48 -->
<g id="edge58" class="edge">
<title>node_45&#45;&#45;node_48</title>
<path fill="none" stroke="black" d="M1244.3,-91C1261.47,-91 1286.34,-91 1294.39,-91"/>
</g>
<!-- node_70 -->
<g id="node71" class="node">
<title>node_70</title>
<polygon fill="white" stroke="black" points="1316,-64 1280,-64 1280,-42 1316,-42 1316,-64"/>
<text text-anchor="middle" x="1298" y="-49.9" font-family="Migu 1M" font-size="12.00">H</text>
</g>
<!-- node_46&#45;&#45;node_70 -->
<g id="edge87" class="edge">
<title>node_46&#45;&#45;node_70</title>
<path fill="none" stroke="black" d="M1172.13,-52.12C1199.42,-52.31 1252.48,-52.69 1279.81,-52.88"/>
</g>
<!-- node_49 -->
<g id="node50" class="node">
<title>node_49</title>
<ellipse fill="white" stroke="black" cx="1298" cy="-15" rx="7" ry="7"/>
<text text-anchor="middle" x="1298" y="-11.9" font-family="Migu 1M" font-size="12.00">+</text>
</g>
<!-- node_47&#45;&#45;node_49 -->
<g id="edge59" class="edge">
<title>node_47&#45;&#45;node_49</title>
<path fill="none" stroke="black" d="M1244.3,-13.49C1259.36,-13.92 1280.36,-14.52 1290.71,-14.82"/>
</g>
<!-- node_48&#45;&#45;node_7 -->
<g id="edge91" class="edge">
<title>node_48&#45;&#45;node_7</title>
<path fill="none" stroke="black" d="M1301.86,-91.04C1315.86,-91.22 1378.6,-92 1430,-92 1430,-92 1430,-92 1953,-92 1998.12,-92 2051.29,-93.02 2077.95,-93.6"/>
</g>
<!-- node_48&#45;&#45;node_49 -->
<g id="edge60" class="edge">
<title>node_48&#45;&#45;node_49</title>
<path fill="none" stroke="black" d="M1294.59,-89.7C1287.03,-86.59 1268.99,-77.98 1262,-64 1257.63,-55.25 1257.63,-50.75 1262,-42 1268.15,-29.7 1282.86,-21.55 1291.45,-17.66"/>
</g>
<!-- node_50 -->
<g id="node51" class="node">
<title>node_50</title>
<polygon fill="white" stroke="black" points="1388,-26 1352,-26 1352,-4 1388,-4 1388,-26"/>
<text text-anchor="middle" x="1370" y="-11.9" font-family="Migu 1M" font-size="12.00">H</text>
</g>
<!-- node_49&#45;&#45;node_50 -->
<g id="edge61" class="edge">
<title>node_49&#45;&#45;node_50</title>
<path fill="none" stroke="black" d="M1305.46,-15C1315.88,-15 1336.76,-15 1351.74,-15"/>
</g>
<!-- node_52 -->
<g id="node53" class="node">
<title>node_52</title>
<ellipse fill="white" stroke="black" cx="1431" cy="-15" rx="7" ry="7"/>
<text text-anchor="middle" x="1431" y="-11.9" font-family="Migu 1M" font-size="12.00">+</text>
</g>
<!-- node_50&#45;&#45;node_52 -->
<g id="edge63" class="edge">
<title>node_50&#45;&#45;node_52</title>
<path fill="none" stroke="black" d="M1388.07,-15C1400.04,-15 1415.37,-15 1423.78,-15"/>
</g>
<!-- node_51&#45;&#45;node_52 -->
<g id="edge64" class="edge">
<title>node_51&#45;&#45;node_52</title>
<path fill="none" stroke="black" d="M1431,-126.21C1431,-91.54 1431,-56.86 1431,-22.19"/>
</g>
<!-- node_57 -->
<g id="node58" class="node">
<title>node_57</title>
<ellipse fill="black" stroke="black" cx="1675" cy="-130" rx="3.5" ry="3.5"/>
</g>
<!-- node_51&#45;&#45;node_57 -->
<g id="edge70" class="edge">
<title>node_51&#45;&#45;node_57</title>
<path fill="none" stroke="black" d="M1434.72,-130C1459.54,-130 1646.57,-130 1671.3,-130"/>
</g>
<!-- node_53 -->
<g id="node54" class="node">
<title>node_53</title>
<polygon fill="white" stroke="black" points="1510,-26 1474,-26 1474,-4 1510,-4 1510,-26"/>
<text text-anchor="middle" x="1492" y="-11.9" font-family="Migu 1M" font-size="12.00">T+</text>
</g>
<!-- node_52&#45;&#45;node_53 -->
<g id="edge65" class="edge">
<title>node_52&#45;&#45;node_53</title>
<path fill="none" stroke="black" d="M1438.31,-15C1446.76,-15 1462.04,-15 1473.98,-15"/>
</g>
<!-- node_55 -->
<g id="node56" class="node">
<title>node_55</title>
<ellipse fill="white" stroke="black" cx="1553" cy="-15" rx="7" ry="7"/>
<text text-anchor="middle" x="1553" y="-11.9" font-family="Migu 1M" font-size="12.00">+</text>
</g>
<!-- node_53&#45;&#45;node_55 -->
<g id="edge67" class="edge">
<title>node_53&#45;&#45;node_55</title>
<path fill="none" stroke="black" d="M1510.07,-15C1522.04,-15 1537.37,-15 1545.78,-15"/>
</g>
<!-- node_54&#45;&#45;node_55 -->
<g id="edge68" class="edge">
<title>node_54&#45;&#45;node_55</title>
<path fill="none" stroke="black" d="M1553,-164.3C1553,-116.92 1553,-69.55 1553,-22.17"/>
</g>
<!-- node_61 -->
<g id="node62" class="node">
<title>node_61</title>
<ellipse fill="black" stroke="black" cx="1808" cy="-166" rx="3.5" ry="3.5"/>
</g>
<!-- node_54&#45;&#45;node_61 -->
<g id="edge75" class="edge">
<title>node_54&#45;&#45;node_61</title>
<path fill="none" stroke="black" d="M1556.5,-167.98C1581.14,-167.79 1779.75,-166.22 1804.48,-166.02"/>
</g>
<!-- node_56 -->
<g id="node57" class="node">
<title>node_56</title>
<polygon fill="white" stroke="black" points="1632,-26 1596,-26 1596,-4 1632,-4 1632,-26"/>
<text text-anchor="middle" x="1614" y="-11.9" font-family="Migu 1M" font-size="12.00">T</text>
</g>
<!-- node_55&#45;&#45;node_56 -->
<g id="edge69" class="edge">
<title>node_55&#45;&#45;node_56</title>
<path fill="none" stroke="black" d="M1560.31,-15C1568.76,-15 1584.04,-15 1595.98,-15"/>
</g>
<!-- node_58 -->
<g id="node59" class="node">
<title>node_58</title>
<ellipse fill="white" stroke="black" cx="1675" cy="-15" rx="7" ry="7"/>
<text text-anchor="middle" x="1675" y="-11.9" font-family="Migu 1M" font-size="12.00">+</text>
</g>
<!-- node_56&#45;&#45;node_58 -->
<g id="edge71" class="edge">
<title>node_56&#45;&#45;node_58</title>
<path fill="none" stroke="black" d="M1632.07,-15C1644.04,-15 1659.37,-15 1667.78,-15"/>
</g>
<!-- node_57&#45;&#45;node_58 -->
<g id="edge72" class="edge">
<title>node_57&#45;&#45;node_58</title>
<path fill="none" stroke="black" d="M1675,-126.21C1675,-91.54 1675,-56.86 1675,-22.19"/>
</g>
<!-- node_59 -->
<g id="node60" class="node">
<title>node_59</title>
<polygon fill="white" stroke="black" points="1826,-143 1790,-143 1790,-121 1826,-121 1826,-143"/>
<text text-anchor="middle" x="1808" y="-128.9" font-family="Migu 1M" font-size="12.00">T</text>
</g>
<!-- node_57&#45;&#45;node_59 -->
<g id="edge73" class="edge">
<title>node_57&#45;&#45;node_59</title>
<path fill="none" stroke="black" d="M1678.74,-130.04C1692.85,-130.26 1757.94,-131.25 1789.6,-131.73"/>
</g>
<!-- node_60 -->
<g id="node61" class="node">
<title>node_60</title>
<polygon fill="white" stroke="black" points="1754,-26 1718,-26 1718,-4 1754,-4 1754,-26"/>
<text text-anchor="middle" x="1736" y="-11.9" font-family="Migu 1M" font-size="12.00">T+</text>
</g>
<!-- node_58&#45;&#45;node_60 -->
<g id="edge74" class="edge">
<title>node_58&#45;&#45;node_60</title>
<path fill="none" stroke="black" d="M1682.31,-15C1690.76,-15 1706.04,-15 1717.98,-15"/>
</g>
<!-- node_64 -->
<g id="node65" class="node">
<title>node_64</title>
<ellipse fill="white" stroke="black" cx="1880" cy="-133" rx="7" ry="7"/>
<text text-anchor="middle" x="1880" y="-129.9" font-family="Migu 1M" font-size="12.00">+</text>
</g>
<!-- node_59&#45;&#45;node_64 -->
<g id="edge79" class="edge">
<title>node_59&#45;&#45;node_64</title>
<path fill="none" stroke="black" d="M1826.3,-132.25C1841.36,-132.46 1862.36,-132.76 1872.71,-132.91"/>
</g>
<!-- node_62 -->
<g id="node63" class="node">
<title>node_62</title>
<ellipse fill="white" stroke="black" cx="1808" cy="-15" rx="7" ry="7"/>
<text text-anchor="middle" x="1808" y="-11.9" font-family="Migu 1M" font-size="12.00">+</text>
</g>
<!-- node_60&#45;&#45;node_62 -->
<g id="edge76" class="edge">
<title>node_60&#45;&#45;node_62</title>
<path fill="none" stroke="black" d="M1754.3,-15C1769.36,-15 1790.36,-15 1800.71,-15"/>
</g>
<!-- node_61&#45;&#45;node_62 -->
<g id="edge77" class="edge">
<title>node_61&#45;&#45;node_62</title>
<path fill="none" stroke="black" d="M1804.61,-165.05C1797.09,-162.73 1779.13,-156.01 1772,-143 1767.3,-134.42 1770.41,-130.65 1772,-121 1778.46,-81.88 1797.49,-37.8 1804.95,-21.5"/>
</g>
<!-- node_63 -->
<g id="node64" class="node">
<title>node_63</title>
<ellipse fill="black" stroke="black" cx="1880" cy="-166" rx="3.5" ry="3.5"/>
</g>
<!-- node_61&#45;&#45;node_63 -->
<g id="edge78" class="edge">
<title>node_61&#45;&#45;node_63</title>
<path fill="none" stroke="black" d="M1811.66,-166C1822.75,-166 1865.25,-166 1876.34,-166"/>
</g>
<!-- node_65 -->
<g id="node66" class="node">
<title>node_65</title>
<polygon fill="white" stroke="black" points="1898,-26 1862,-26 1862,-4 1898,-4 1898,-26"/>
<text text-anchor="middle" x="1880" y="-11.9" font-family="Migu 1M" font-size="12.00">T</text>
</g>
<!-- node_62&#45;&#45;node_65 -->
<g id="edge81" class="edge">
<title>node_62&#45;&#45;node_65</title>
<path fill="none" stroke="black" d="M1815.46,-15C1825.88,-15 1846.76,-15 1861.74,-15"/>
</g>
<!-- node_63&#45;&#45;node_64 -->
<g id="edge80" class="edge">
<title>node_63&#45;&#45;node_64</title>
<path fill="none" stroke="black" d="M1880,-162.37C1880,-154.99 1880,-147.6 1880,-140.22"/>
</g>
<!-- node_66 -->
<g id="node67" class="node">
<title>node_66</title>
<polygon fill="white" stroke="black" points="1970,-184 1934,-184 1934,-162 1970,-162 1970,-184"/>
<text text-anchor="middle" x="1952" y="-169.9" font-family="Migu 1M" font-size="12.00">T</text>
</g>
<!-- node_63&#45;&#45;node_66 -->
<g id="edge82" class="edge">
<title>node_63&#45;&#45;node_66</title>
<path fill="none" stroke="black" d="M1883.66,-166.27C1891.75,-167.07 1916.57,-169.56 1933.7,-171.27"/>
</g>
<!-- node_67 -->
<g id="node68" class="node">
<title>node_67</title>
<polygon fill="white" stroke="black" points="1970,-144 1934,-144 1934,-122 1970,-122 1970,-144"/>
<text text-anchor="middle" x="1952" y="-129.9" font-family="Migu 1M" font-size="12.00">T+</text>
</g>
<!-- node_64&#45;&#45;node_67 -->
<g id="edge83" class="edge">
<title>node_64&#45;&#45;node_67</title>
<path fill="none" stroke="black" d="M1887.46,-133C1897.88,-133 1918.76,-133 1933.74,-133"/>
</g>
<!-- node_71 -->
<g id="node72" class="node">
<title>node_71</title>
<polygon fill="white" stroke="black" points="2042,-25 2006,-25 2006,-3 2042,-3 2042,-25"/>
<text text-anchor="middle" x="2024" y="-10.9" font-family="Migu 1M" font-size="12.00">H</text>
</g>
<!-- node_65&#45;&#45;node_71 -->
<g id="edge88" class="edge">
<title>node_65&#45;&#45;node_71</title>
<path fill="none" stroke="black" d="M1898.13,-14.88C1925.42,-14.69 1978.48,-14.31 2005.81,-14.12"/>
</g>
<!-- node_68 -->
<g id="node69" class="node">
<title>node_68</title>
<ellipse fill="black" stroke="black" cx="2024" cy="-173" rx="3.5" ry="3.5"/>
</g>
<!-- node_66&#45;&#45;node_68 -->
<g id="edge84" class="edge">
<title>node_66&#45;&#45;node_68</title>
<path fill="none" stroke="black" d="M1970.3,-173C1987.47,-173 2012.34,-173 2020.39,-173"/>
</g>
<!-- node_69 -->
<g id="node70" class="node">
<title>node_69</title>
<ellipse fill="white" stroke="black" cx="2024" cy="-134" rx="7" ry="7"/>
<text text-anchor="middle" x="2024" y="-130.9" font-family="Migu 1M" font-size="12.00">+</text>
</g>
<!-- node_67&#45;&#45;node_69 -->
<g id="edge85" class="edge">
<title>node_67&#45;&#45;node_69</title>
<path fill="none" stroke="black" d="M1970.3,-133.25C1985.36,-133.46 2006.36,-133.76 2016.71,-133.91"/>
</g>
<!-- node_68&#45;&#45;node_5 -->
<g id="edge89" class="edge">
<title>node_68&#45;&#45;node_5</title>
<path fill="none" stroke="black" d="M2027.66,-173.04C2035.75,-173.15 2060.57,-173.51 2077.7,-173.75"/>
</g>
<!-- node_68&#45;&#45;node_69 -->
<g id="edge86" class="edge">
<title>node_68&#45;&#45;node_69</title>
<path fill="none" stroke="black" d="M2024,-169C2024,-159.67 2024,-150.34 2024,-141.01"/>
</g>
<!-- node_69&#45;&#45;node_6 -->
<g id="edge90" class="edge">
<title>node_69&#45;&#45;node_6</title>
<path fill="none" stroke="black" d="M2031.46,-134C2041.88,-134 2062.76,-134 2077.74,-134"/>
</g>
<!-- node_70&#45;&#45;node_8 -->
<g id="edge92" class="edge">
<title>node_70&#45;&#45;node_8</title>
<path fill="none" stroke="black" d="M1316.38,-53.22C1341.46,-53.51 1389.29,-54 1430,-54 1430,-54 1430,-54 1953,-54 1998.11,-54 2051.29,-54 2077.95,-54"/>
</g>
<!-- node_71&#45;&#45;node_9 -->
<g id="edge93" class="edge">
<title>node_71&#45;&#45;node_9</title>
<path fill="none" stroke="black" d="M2042.3,-14C2053.15,-14 2067.08,-14 2077.9,-14"/>
</g>
</g>
</svg>
