<?xml version="1.0" encoding="UTF-8" standalone="no"?>
<!DOCTYPE svg PUBLIC "-//W3C//DTD SVG 1.1//EN"
 "http://www.w3.org/Graphics/SVG/1.1/DTD/svg11.dtd">
<!-- Generated by graphviz version 2.43.0 (0)
 -->
<!-- Title: graph_name Pages: 1 -->
<svg width="2974pt" height="192pt"
 viewBox="0.00 0.00 2974.00 192.00" xmlns="http://www.w3.org/2000/svg" xmlns:xlink="http://www.w3.org/1999/xlink">
<g id="graph0" class="graph" transform="scale(1 1) rotate(0) translate(4 188)">
<title>graph_name</title>
<polygon fill="white" stroke="transparent" points="-4,4 -4,-188 2970,-188 2970,4 -4,4"/>
<!-- node_0 -->
<g id="node1" class="node">
<title>node_0</title>
<polygon fill="white" stroke="white" points="36,-184 0,-184 0,-162 36,-162 36,-184"/>
<text text-anchor="middle" x="18" y="-169.9" font-family="Migu 1M" font-size="12.00">q_0</text>
</g>
<!-- node_1 -->
<g id="node2" class="node">
<title>node_1</title>
<polygon fill="white" stroke="white" points="36,-144 0,-144 0,-122 36,-122 36,-144"/>
<text text-anchor="middle" x="18" y="-129.9" font-family="Migu 1M" font-size="12.00">q_1</text>
</g>
<!-- node_0&#45;&#45;node_1 -->
<g id="edge1" class="edge">
<title>node_0&#45;&#45;node_1</title>
<path fill="none" stroke="white" d="M18,-161.77C18,-155.93 18,-150.09 18,-144.25"/>
</g>
<!-- node_12 -->
<g id="node13" class="node">
<title>node_12</title>
<ellipse fill="black" stroke="black" cx="245" cy="-171" rx="3.5" ry="3.5"/>
</g>
<!-- node_0&#45;&#45;node_12 -->
<g id="edge11" class="edge">
<title>node_0&#45;&#45;node_12</title>
<path fill="none" stroke="black" d="M36.28,-172.85C84.85,-172.41 220.4,-171.21 241.28,-171.02"/>
</g>
<!-- node_2 -->
<g id="node3" class="node">
<title>node_2</title>
<polygon fill="white" stroke="white" points="36,-104 0,-104 0,-82 36,-82 36,-104"/>
<text text-anchor="middle" x="18" y="-89.9" font-family="Migu 1M" font-size="12.00">q_2</text>
</g>
<!-- node_1&#45;&#45;node_2 -->
<g id="edge2" class="edge">
<title>node_1&#45;&#45;node_2</title>
<path fill="none" stroke="white" d="M18,-121.77C18,-115.93 18,-110.09 18,-104.25"/>
</g>
<!-- node_10 -->
<g id="node11" class="node">
<title>node_10</title>
<polygon fill="white" stroke="black" points="108,-144 72,-144 72,-122 108,-122 108,-144"/>
<text text-anchor="middle" x="90" y="-129.9" font-family="Migu 1M" font-size="12.00">H</text>
</g>
<!-- node_1&#45;&#45;node_10 -->
<g id="edge9" class="edge">
<title>node_1&#45;&#45;node_10</title>
<path fill="none" stroke="black" d="M36.3,-133C47.15,-133 61.08,-133 71.9,-133"/>
</g>
<!-- node_3 -->
<g id="node4" class="node">
<title>node_3</title>
<polygon fill="white" stroke="white" points="36,-64 0,-64 0,-42 36,-42 36,-64"/>
<text text-anchor="middle" x="18" y="-49.9" font-family="Migu 1M" font-size="12.00">q_3</text>
</g>
<!-- node_2&#45;&#45;node_3 -->
<g id="edge3" class="edge">
<title>node_2&#45;&#45;node_3</title>
<path fill="none" stroke="white" d="M18,-81.77C18,-75.93 18,-70.09 18,-64.25"/>
</g>
<!-- node_19 -->
<g id="node20" class="node">
<title>node_19</title>
<ellipse fill="black" stroke="black" cx="162" cy="-92" rx="3.5" ry="3.5"/>
</g>
<!-- node_2&#45;&#45;node_19 -->
<g id="edge20" class="edge">
<title>node_2&#45;&#45;node_19</title>
<path fill="none" stroke="black" d="M36.13,-92.88C70.06,-92.64 143.82,-92.12 158.45,-92.02"/>
</g>
<!-- node_4 -->
<g id="node5" class="node">
<title>node_4</title>
<polygon fill="white" stroke="white" points="36,-24 0,-24 0,-2 36,-2 36,-24"/>
<text text-anchor="middle" x="18" y="-9.9" font-family="Migu 1M" font-size="12.00">q_4</text>
</g>
<!-- node_3&#45;&#45;node_4 -->
<g id="edge4" class="edge">
<title>node_3&#45;&#45;node_4</title>
<path fill="none" stroke="white" d="M18,-41.77C18,-35.93 18,-30.09 18,-24.25"/>
</g>
<!-- node_18 -->
<g id="node19" class="node">
<title>node_18</title>
<polygon fill="white" stroke="black" points="108,-64 72,-64 72,-42 108,-42 108,-64"/>
<text text-anchor="middle" x="90" y="-49.9" font-family="Migu 1M" font-size="12.00">H</text>
</g>
<!-- node_3&#45;&#45;node_18 -->
<g id="edge19" class="edge">
<title>node_3&#45;&#45;node_18</title>
<path fill="none" stroke="black" d="M36.3,-53C47.15,-53 61.08,-53 71.9,-53"/>
</g>
<!-- node_24 -->
<g id="node25" class="node">
<title>node_24</title>
<polygon fill="white" stroke="black" points="440,-24 404,-24 404,-2 440,-2 440,-24"/>
<text text-anchor="middle" x="422" y="-9.9" font-family="Migu 1M" font-size="12.00">H</text>
</g>
<!-- node_4&#45;&#45;node_24 -->
<g id="edge27" class="edge">
<title>node_4&#45;&#45;node_24</title>
<path fill="none" stroke="black" d="M36.05,-13C62.71,-13 115.89,-13 161,-13 161,-13 161,-13 246,-13 303.73,-13 372.16,-13 403.61,-13"/>
</g>
<!-- node_5 -->
<g id="node6" class="node">
<title>node_5</title>
<polygon fill="white" stroke="white" points="2966,-182 2930,-182 2930,-160 2966,-160 2966,-182"/>
</g>
<!-- node_6 -->
<g id="node7" class="node">
<title>node_6</title>
<polygon fill="white" stroke="white" points="2966,-142 2930,-142 2930,-120 2966,-120 2966,-142"/>
</g>
<!-- node_5&#45;&#45;node_6 -->
<g id="edge5" class="edge">
<title>node_5&#45;&#45;node_6</title>
<path fill="none" stroke="white" d="M2948,-159.77C2948,-153.93 2948,-148.09 2948,-142.25"/>
</g>
<!-- node_7 -->
<g id="node8" class="node">
<title>node_7</title>
<polygon fill="white" stroke="white" points="2966,-102 2930,-102 2930,-80 2966,-80 2966,-102"/>
</g>
<!-- node_6&#45;&#45;node_7 -->
<g id="edge6" class="edge">
<title>node_6&#45;&#45;node_7</title>
<path fill="none" stroke="white" d="M2948,-119.77C2948,-113.93 2948,-108.09 2948,-102.25"/>
</g>
<!-- node_8 -->
<g id="node9" class="node">
<title>node_8</title>
<polygon fill="white" stroke="white" points="2966,-62 2930,-62 2930,-40 2966,-40 2966,-62"/>
</g>
<!-- node_7&#45;&#45;node_8 -->
<g id="edge7" class="edge">
<title>node_7&#45;&#45;node_8</title>
<path fill="none" stroke="white" d="M2948,-79.77C2948,-73.93 2948,-68.09 2948,-62.25"/>
</g>
<!-- node_9 -->
<g id="node10" class="node">
<title>node_9</title>
<polygon fill="white" stroke="white" points="2966,-22 2930,-22 2930,0 2966,0 2966,-22"/>
</g>
<!-- node_8&#45;&#45;node_9 -->
<g id="edge8" class="edge">
<title>node_8&#45;&#45;node_9</title>
<path fill="none" stroke="white" d="M2948,-39.77C2948,-33.93 2948,-28.09 2948,-22.25"/>
</g>
<!-- node_11 -->
<g id="node12" class="node">
<title>node_11</title>
<polygon fill="white" stroke="black" points="180,-144 144,-144 144,-122 180,-122 180,-144"/>
<text text-anchor="middle" x="162" y="-129.9" font-family="Migu 1M" font-size="12.00">H</text>
</g>
<!-- node_10&#45;&#45;node_11 -->
<g id="edge10" class="edge">
<title>node_10&#45;&#45;node_11</title>
<path fill="none" stroke="black" d="M108.3,-133C119.15,-133 133.08,-133 143.9,-133"/>
</g>
<!-- node_13 -->
<g id="node14" class="node">
<title>node_13</title>
<ellipse fill="white" stroke="black" cx="245" cy="-133" rx="7" ry="7"/>
<text text-anchor="middle" x="245" y="-129.9" font-family="Migu 1M" font-size="12.00">+</text>
</g>
<!-- node_11&#45;&#45;node_13 -->
<g id="edge12" class="edge">
<title>node_11&#45;&#45;node_13</title>
<path fill="none" stroke="black" d="M180.18,-133C198.2,-133 225.56,-133 237.75,-133"/>
</g>
<!-- node_12&#45;&#45;node_13 -->
<g id="edge13" class="edge">
<title>node_12&#45;&#45;node_13</title>
<path fill="none" stroke="black" d="M245,-167.14C245,-158.14 245,-149.13 245,-140.12"/>
</g>
<!-- node_15 -->
<g id="node16" class="node">
<title>node_15</title>
<ellipse fill="black" stroke="black" cx="422" cy="-168" rx="3.5" ry="3.5"/>
</g>
<!-- node_12&#45;&#45;node_15 -->
<g id="edge15" class="edge">
<title>node_12&#45;&#45;node_15</title>
<path fill="none" stroke="black" d="M248.75,-170.95C269.27,-170.6 398.34,-168.39 418.39,-168.04"/>
</g>
<!-- node_14 -->
<g id="node15" class="node">
<title>node_14</title>
<polygon fill="white" stroke="black" points="368,-143 310,-143 310,-121 368,-121 368,-143"/>
<text text-anchor="middle" x="339" y="-128.9" font-family="Migu 1M" font-size="12.00">RZ(3π/2)</text>
</g>
<!-- node_13&#45;&#45;node_14 -->
<g id="edge14" class="edge">
<title>node_13&#45;&#45;node_14</title>
<path fill="none" stroke="black" d="M252.04,-132.93C263.55,-132.81 289.31,-132.53 309.65,-132.31"/>
</g>
<!-- node_16 -->
<g id="node17" class="node">
<title>node_16</title>
<ellipse fill="white" stroke="black" cx="422" cy="-132" rx="7" ry="7"/>
<text text-anchor="middle" x="422" y="-128.9" font-family="Migu 1M" font-size="12.00">+</text>
</g>
<!-- node_14&#45;&#45;node_16 -->
<g id="edge16" class="edge">
<title>node_14&#45;&#45;node_16</title>
<path fill="none" stroke="black" d="M368.33,-132C385.12,-132 404.98,-132 414.83,-132"/>
</g>
<!-- node_15&#45;&#45;node_16 -->
<g id="edge17" class="edge">
<title>node_15&#45;&#45;node_16</title>
<path fill="none" stroke="black" d="M422,-164.38C422,-155.93 422,-147.48 422,-139.03"/>
</g>
<!-- node_28 -->
<g id="node29" class="node">
<title>node_28</title>
<ellipse fill="black" stroke="black" cx="721" cy="-168" rx="3.5" ry="3.5"/>
</g>
<!-- node_15&#45;&#45;node_28 -->
<g id="edge32" class="edge">
<title>node_15&#45;&#45;node_28</title>
<path fill="none" stroke="black" d="M425.57,-168C452.9,-168 689.71,-168 717.37,-168"/>
</g>
<!-- node_17 -->
<g id="node18" class="node">
<title>node_17</title>
<polygon fill="white" stroke="black" points="534,-140 476,-140 476,-118 534,-118 534,-140"/>
<text text-anchor="middle" x="505" y="-125.9" font-family="Migu 1M" font-size="12.00">RZ(π/2)</text>
</g>
<!-- node_16&#45;&#45;node_17 -->
<g id="edge18" class="edge">
<title>node_16&#45;&#45;node_17</title>
<path fill="none" stroke="black" d="M429.09,-131.77C438.95,-131.41 459.01,-130.67 475.89,-130.04"/>
</g>
<!-- node_25 -->
<g id="node26" class="node">
<title>node_25</title>
<ellipse fill="black" stroke="black" cx="577" cy="-129" rx="3.5" ry="3.5"/>
</g>
<!-- node_17&#45;&#45;node_25 -->
<g id="edge28" class="edge">
<title>node_17&#45;&#45;node_25</title>
<path fill="none" stroke="black" d="M534.07,-129C549.59,-129 567,-129 573.43,-129"/>
</g>
<!-- node_20 -->
<g id="node21" class="node">
<title>node_20</title>
<ellipse fill="white" stroke="black" cx="162" cy="-53" rx="7" ry="7"/>
<text text-anchor="middle" x="162" y="-49.9" font-family="Migu 1M" font-size="12.00">+</text>
</g>
<!-- node_18&#45;&#45;node_20 -->
<g id="edge21" class="edge">
<title>node_18&#45;&#45;node_20</title>
<path fill="none" stroke="black" d="M108.3,-53C123.36,-53 144.36,-53 154.71,-53"/>
</g>
<!-- node_19&#45;&#45;node_20 -->
<g id="edge22" class="edge">
<title>node_19&#45;&#45;node_20</title>
<path fill="none" stroke="black" d="M162,-88C162,-78.67 162,-69.34 162,-60.01"/>
</g>
<!-- node_22 -->
<g id="node23" class="node">
<title>node_22</title>
<ellipse fill="black" stroke="black" cx="505" cy="-92" rx="3.5" ry="3.5"/>
</g>
<!-- node_19&#45;&#45;node_22 -->
<g id="edge24" class="edge">
<title>node_19&#45;&#45;node_22</title>
<path fill="none" stroke="black" d="M165.55,-92C195.05,-92 471.22,-92 501.34,-92"/>
</g>
<!-- node_21 -->
<g id="node22" class="node">
<title>node_21</title>
<polygon fill="white" stroke="black" points="274,-64 216,-64 216,-42 274,-42 274,-64"/>
<text text-anchor="middle" x="245" y="-49.9" font-family="Migu 1M" font-size="12.00">RZ(7π/4)</text>
</g>
<!-- node_20&#45;&#45;node_21 -->
<g id="edge23" class="edge">
<title>node_20&#45;&#45;node_21</title>
<path fill="none" stroke="black" d="M169.09,-53C178.95,-53 199.01,-53 215.89,-53"/>
</g>
<!-- node_23 -->
<g id="node24" class="node">
<title>node_23</title>
<ellipse fill="white" stroke="black" cx="505" cy="-54" rx="7" ry="7"/>
<text text-anchor="middle" x="505" y="-50.9" font-family="Migu 1M" font-size="12.00">+</text>
</g>
<!-- node_21&#45;&#45;node_23 -->
<g id="edge25" class="edge">
<title>node_21&#45;&#45;node_23</title>
<path fill="none" stroke="black" d="M274.1,-53.11C333.13,-53.34 467.11,-53.86 497.7,-53.98"/>
</g>
<!-- node_22&#45;&#45;node_23 -->
<g id="edge26" class="edge">
<title>node_22&#45;&#45;node_23</title>
<path fill="none" stroke="black" d="M505,-88.14C505,-79.14 505,-70.13 505,-61.12"/>
</g>
<!-- node_43 -->
<g id="node44" class="node">
<title>node_43</title>
<ellipse fill="black" stroke="black" cx="1303" cy="-92" rx="3.5" ry="3.5"/>
</g>
<!-- node_22&#45;&#45;node_43 -->
<g id="edge53" class="edge">
<title>node_22&#45;&#45;node_43</title>
<path fill="none" stroke="black" d="M508.71,-92C523.07,-92 591.79,-92 648,-92 648,-92 648,-92 1160,-92 1216.21,-92 1284.93,-92 1299.29,-92"/>
</g>
<!-- node_31 -->
<g id="node32" class="node">
<title>node_31</title>
<ellipse fill="black" stroke="black" cx="865" cy="-54" rx="3.5" ry="3.5"/>
</g>
<!-- node_23&#45;&#45;node_31 -->
<g id="edge36" class="edge">
<title>node_23&#45;&#45;node_31</title>
<path fill="none" stroke="black" d="M512.23,-54C532.06,-54 595.49,-54 648,-54 648,-54 648,-54 722,-54 778.21,-54 846.93,-54 861.29,-54"/>
</g>
<!-- node_26 -->
<g id="node27" class="node">
<title>node_26</title>
<ellipse fill="white" stroke="black" cx="577" cy="-15" rx="7" ry="7"/>
<text text-anchor="middle" x="577" y="-11.9" font-family="Migu 1M" font-size="12.00">+</text>
</g>
<!-- node_24&#45;&#45;node_26 -->
<g id="edge29" class="edge">
<title>node_24&#45;&#45;node_26</title>
<path fill="none" stroke="black" d="M440.25,-13.23C474.17,-13.67 548.12,-14.64 569.87,-14.92"/>
</g>
<!-- node_25&#45;&#45;node_26 -->
<g id="edge30" class="edge">
<title>node_25&#45;&#45;node_26</title>
<path fill="none" stroke="black" d="M577,-125.24C577,-90.87 577,-56.5 577,-22.12"/>
</g>
<!-- node_33 -->
<g id="node34" class="node">
<title>node_33</title>
<ellipse fill="black" stroke="black" cx="915" cy="-130" rx="3.5" ry="3.5"/>
</g>
<!-- node_25&#45;&#45;node_33 -->
<g id="edge39" class="edge">
<title>node_25&#45;&#45;node_33</title>
<path fill="none" stroke="black" d="M580.71,-129.03C595.07,-129.21 663.79,-130 720,-130 720,-130 720,-130 794,-130 841.08,-130 898.56,-130 911.38,-130"/>
</g>
<!-- node_27 -->
<g id="node28" class="node">
<title>node_27</title>
<polygon fill="white" stroke="black" points="678,-26 620,-26 620,-4 678,-4 678,-26"/>
<text text-anchor="middle" x="649" y="-11.9" font-family="Migu 1M" font-size="12.00">RZ(7π/4)</text>
</g>
<!-- node_26&#45;&#45;node_27 -->
<g id="edge31" class="edge">
<title>node_26&#45;&#45;node_27</title>
<path fill="none" stroke="black" d="M584.46,-15C592.52,-15 606.81,-15 619.81,-15"/>
</g>
<!-- node_29 -->
<g id="node30" class="node">
<title>node_29</title>
<ellipse fill="white" stroke="black" cx="721" cy="-15" rx="7" ry="7"/>
<text text-anchor="middle" x="721" y="-11.9" font-family="Migu 1M" font-size="12.00">+</text>
</g>
<!-- node_27&#45;&#45;node_29 -->
<g id="edge33" class="edge">
<title>node_27&#45;&#45;node_29</title>
<path fill="none" stroke="black" d="M678.07,-15C691.3,-15 705.92,-15 713.92,-15"/>
</g>
<!-- node_28&#45;&#45;node_29 -->
<g id="edge34" class="edge">
<title>node_28&#45;&#45;node_29</title>
<path fill="none" stroke="black" d="M721,-164.3C721,-116.92 721,-69.55 721,-22.17"/>
</g>
<!-- node_35 -->
<g id="node36" class="node">
<title>node_35</title>
<ellipse fill="black" stroke="black" cx="965" cy="-168" rx="3.5" ry="3.5"/>
</g>
<!-- node_28&#45;&#45;node_35 -->
<g id="edge42" class="edge">
<title>node_28&#45;&#45;node_35</title>
<path fill="none" stroke="black" d="M724.72,-168C749.54,-168 936.57,-168 961.3,-168"/>
</g>
<!-- node_30 -->
<g id="node31" class="node">
<title>node_30</title>
<polygon fill="white" stroke="black" points="822,-26 764,-26 764,-4 822,-4 822,-26"/>
<text text-anchor="middle" x="793" y="-11.9" font-family="Migu 1M" font-size="12.00">RZ(π/4)</text>
</g>
<!-- node_29&#45;&#45;node_30 -->
<g id="edge35" class="edge">
<title>node_29&#45;&#45;node_30</title>
<path fill="none" stroke="black" d="M728.46,-15C736.52,-15 750.81,-15 763.81,-15"/>
</g>
<!-- node_32 -->
<g id="node33" class="node">
<title>node_32</title>
<ellipse fill="white" stroke="black" cx="865" cy="-19" rx="7" ry="7"/>
<text text-anchor="middle" x="865" y="-15.9" font-family="Migu 1M" font-size="12.00">+</text>
</g>
<!-- node_30&#45;&#45;node_32 -->
<g id="edge37" class="edge">
<title>node_30&#45;&#45;node_32</title>
<path fill="none" stroke="black" d="M822.07,-16.6C835.3,-17.36 849.92,-18.2 857.92,-18.65"/>
</g>
<!-- node_31&#45;&#45;node_32 -->
<g id="edge38" class="edge">
<title>node_31&#45;&#45;node_32</title>
<path fill="none" stroke="black" d="M865,-50.08C865,-42.09 865,-34.1 865,-26.11"/>
</g>
<!-- node_38 -->
<g id="node39" class="node">
<title>node_38</title>
<ellipse fill="black" stroke="black" cx="1109" cy="-54" rx="3.5" ry="3.5"/>
</g>
<!-- node_31&#45;&#45;node_38 -->
<g id="edge46" class="edge">
<title>node_31&#45;&#45;node_38</title>
<path fill="none" stroke="black" d="M868.72,-54C893.54,-54 1080.57,-54 1105.3,-54"/>
</g>
<!-- node_34 -->
<g id="node35" class="node">
<title>node_34</title>
<ellipse fill="white" stroke="black" cx="915" cy="-19" rx="7" ry="7"/>
<text text-anchor="middle" x="915" y="-15.9" font-family="Migu 1M" font-size="12.00">+</text>
</g>
<!-- node_32&#45;&#45;node_34 -->
<g id="edge40" class="edge">
<title>node_32&#45;&#45;node_34</title>
<path fill="none" stroke="black" d="M872.28,-19C881.53,-19 898.71,-19 907.88,-19"/>
</g>
<!-- node_33&#45;&#45;node_34 -->
<g id="edge41" class="edge">
<title>node_33&#45;&#45;node_34</title>
<path fill="none" stroke="black" d="M915,-126.36C915,-93.03 915,-59.7 915,-26.37"/>
</g>
<!-- node_51 -->
<g id="node52" class="node">
<title>node_51</title>
<ellipse fill="black" stroke="black" cx="1619" cy="-130" rx="3.5" ry="3.5"/>
</g>
<!-- node_33&#45;&#45;node_51 -->
<g id="edge64" class="edge">
<title>node_33&#45;&#45;node_51</title>
<path fill="none" stroke="black" d="M918.62,-130C931.44,-130 988.92,-130 1036,-130 1036,-130 1036,-130 1498,-130 1545.08,-130 1602.56,-130 1615.38,-130"/>
</g>
<!-- node_36 -->
<g id="node37" class="node">
<title>node_36</title>
<ellipse fill="white" stroke="black" cx="965" cy="-19" rx="7" ry="7"/>
<text text-anchor="middle" x="965" y="-15.9" font-family="Migu 1M" font-size="12.00">+</text>
</g>
<!-- node_34&#45;&#45;node_36 -->
<g id="edge43" class="edge">
<title>node_34&#45;&#45;node_36</title>
<path fill="none" stroke="black" d="M922.28,-19C931.53,-19 948.71,-19 957.88,-19"/>
</g>
<!-- node_35&#45;&#45;node_36 -->
<g id="edge44" class="edge">
<title>node_35&#45;&#45;node_36</title>
<path fill="none" stroke="black" d="M965,-164.4C965,-118.36 965,-72.32 965,-26.28"/>
</g>
<!-- node_40 -->
<g id="node41" class="node">
<title>node_40</title>
<ellipse fill="black" stroke="black" cx="1159" cy="-168" rx="3.5" ry="3.5"/>
</g>
<!-- node_35&#45;&#45;node_40 -->
<g id="edge49" class="edge">
<title>node_35&#45;&#45;node_40</title>
<path fill="none" stroke="black" d="M968.71,-168C990.32,-168 1134.15,-168 1155.38,-168"/>
</g>
<!-- node_37 -->
<g id="node38" class="node">
<title>node_37</title>
<polygon fill="white" stroke="black" points="1066,-26 1008,-26 1008,-4 1066,-4 1066,-26"/>
<text text-anchor="middle" x="1037" y="-11.9" font-family="Migu 1M" font-size="12.00">RZ(7π/4)</text>
</g>
<!-- node_36&#45;&#45;node_37 -->
<g id="edge45" class="edge">
<title>node_36&#45;&#45;node_37</title>
<path fill="none" stroke="black" d="M972.46,-18.63C980.52,-18.17 994.81,-17.35 1007.81,-16.61"/>
</g>
<!-- node_39 -->
<g id="node40" class="node">
<title>node_39</title>
<ellipse fill="white" stroke="black" cx="1109" cy="-17" rx="7" ry="7"/>
<text text-anchor="middle" x="1109" y="-13.9" font-family="Migu 1M" font-size="12.00">+</text>
</g>
<!-- node_37&#45;&#45;node_39 -->
<g id="edge47" class="edge">
<title>node_37&#45;&#45;node_39</title>
<path fill="none" stroke="black" d="M1066.07,-15.8C1079.3,-16.18 1093.92,-16.6 1101.92,-16.83"/>
</g>
<!-- node_38&#45;&#45;node_39 -->
<g id="edge48" class="edge">
<title>node_38&#45;&#45;node_39</title>
<path fill="none" stroke="black" d="M1109,-50.28C1109,-41.59 1109,-32.91 1109,-24.23"/>
</g>
<!-- node_48 -->
<g id="node49" class="node">
<title>node_48</title>
<ellipse fill="black" stroke="black" cx="1497" cy="-54" rx="3.5" ry="3.5"/>
</g>
<!-- node_38&#45;&#45;node_48 -->
<g id="edge60" class="edge">
<title>node_38&#45;&#45;node_48</title>
<path fill="none" stroke="black" d="M1112.62,-54C1125.44,-54 1182.92,-54 1230,-54 1230,-54 1230,-54 1354,-54 1410.21,-54 1478.93,-54 1493.29,-54"/>
</g>
<!-- node_41 -->
<g id="node42" class="node">
<title>node_41</title>
<ellipse fill="white" stroke="black" cx="1159" cy="-17" rx="7" ry="7"/>
<text text-anchor="middle" x="1159" y="-13.9" font-family="Migu 1M" font-size="12.00">+</text>
</g>
<!-- node_39&#45;&#45;node_41 -->
<g id="edge50" class="edge">
<title>node_39&#45;&#45;node_41</title>
<path fill="none" stroke="black" d="M1116.28,-17C1125.53,-17 1142.71,-17 1151.88,-17"/>
</g>
<!-- node_40&#45;&#45;node_41 -->
<g id="edge51" class="edge">
<title>node_40&#45;&#45;node_41</title>
<path fill="none" stroke="black" d="M1159,-164.35C1159,-117.59 1159,-70.83 1159,-24.08"/>
</g>
<!-- node_45 -->
<g id="node46" class="node">
<title>node_45</title>
<ellipse fill="black" stroke="black" cx="1353" cy="-168" rx="3.5" ry="3.5"/>
</g>
<!-- node_40&#45;&#45;node_45 -->
<g id="edge56" class="edge">
<title>node_40&#45;&#45;node_45</title>
<path fill="none" stroke="black" d="M1162.71,-168C1184.32,-168 1328.15,-168 1349.38,-168"/>
</g>
<!-- node_42 -->
<g id="node43" class="node">
<title>node_42</title>
<polygon fill="white" stroke="black" points="1260,-26 1202,-26 1202,-4 1260,-4 1260,-26"/>
<text text-anchor="middle" x="1231" y="-11.9" font-family="Migu 1M" font-size="12.00">RZ(π/4)</text>
</g>
<!-- node_41&#45;&#45;node_42 -->
<g id="edge52" class="edge">
<title>node_41&#45;&#45;node_42</title>
<path fill="none" stroke="black" d="M1166.46,-16.82C1174.52,-16.59 1188.81,-16.18 1201.81,-15.81"/>
</g>
<!-- node_44 -->
<g id="node45" class="node">
<title>node_44</title>
<ellipse fill="white" stroke="black" cx="1303" cy="-17" rx="7" ry="7"/>
<text text-anchor="middle" x="1303" y="-13.9" font-family="Migu 1M" font-size="12.00">+</text>
</g>
<!-- node_42&#45;&#45;node_44 -->
<g id="edge54" class="edge">
<title>node_42&#45;&#45;node_44</title>
<path fill="none" stroke="black" d="M1260.07,-15.8C1273.3,-16.18 1287.92,-16.6 1295.92,-16.83"/>
</g>
<!-- node_43&#45;&#45;node_44 -->
<g id="edge55" class="edge">
<title>node_43&#45;&#45;node_44</title>
<path fill="none" stroke="black" d="M1303,-88.28C1303,-66.87 1303,-45.45 1303,-24.03"/>
</g>
<!-- node_70 -->
<g id="node71" class="node">
<title>node_70</title>
<ellipse fill="black" stroke="black" cx="2522" cy="-91" rx="3.5" ry="3.5"/>
</g>
<!-- node_43&#45;&#45;node_70 -->
<g id="edge89" class="edge">
<title>node_43&#45;&#45;node_70</title>
<path fill="none" stroke="black" d="M1306.62,-92C1319.44,-92 1376.92,-92 1424,-92 1424,-92 1424,-92 2401,-92 2448.08,-92 2505.56,-91.22 2518.38,-91.04"/>
</g>
<!-- node_46 -->
<g id="node47" class="node">
<title>node_46</title>
<ellipse fill="white" stroke="black" cx="1353" cy="-17" rx="7" ry="7"/>
<text text-anchor="middle" x="1353" y="-13.9" font-family="Migu 1M" font-size="12.00">+</text>
</g>
<!-- node_44&#45;&#45;node_46 -->
<g id="edge57" class="edge">
<title>node_44&#45;&#45;node_46</title>
<path fill="none" stroke="black" d="M1310.28,-17C1319.53,-17 1336.71,-17 1345.88,-17"/>
</g>
<!-- node_45&#45;&#45;node_46 -->
<g id="edge58" class="edge">
<title>node_45&#45;&#45;node_46</title>
<path fill="none" stroke="black" d="M1353,-164.35C1353,-117.59 1353,-70.83 1353,-24.08"/>
</g>
<!-- node_53 -->
<g id="node54" class="node">
<title>node_53</title>
<ellipse fill="black" stroke="black" cx="1669" cy="-168" rx="3.5" ry="3.5"/>
</g>
<!-- node_45&#45;&#45;node_53 -->
<g id="edge67" class="edge">
<title>node_45&#45;&#45;node_53</title>
<path fill="none" stroke="black" d="M1356.71,-168C1371.07,-168 1439.79,-168 1496,-168 1496,-168 1496,-168 1559,-168 1601.39,-168 1653.05,-168 1665.3,-168"/>
</g>
<!-- node_47 -->
<g id="node48" class="node">
<title>node_47</title>
<polygon fill="white" stroke="black" points="1454,-26 1396,-26 1396,-4 1454,-4 1454,-26"/>
<text text-anchor="middle" x="1425" y="-11.9" font-family="Migu 1M" font-size="12.00">RZ(7π/4)</text>
</g>
<!-- node_46&#45;&#45;node_47 -->
<g id="edge59" class="edge">
<title>node_46&#45;&#45;node_47</title>
<path fill="none" stroke="black" d="M1360.46,-16.82C1368.52,-16.59 1382.81,-16.18 1395.81,-15.81"/>
</g>
<!-- node_49 -->
<g id="node50" class="node">
<title>node_49</title>
<ellipse fill="white" stroke="black" cx="1497" cy="-15" rx="7" ry="7"/>
<text text-anchor="middle" x="1497" y="-11.9" font-family="Migu 1M" font-size="12.00">+</text>
</g>
<!-- node_47&#45;&#45;node_49 -->
<g id="edge61" class="edge">
<title>node_47&#45;&#45;node_49</title>
<path fill="none" stroke="black" d="M1454.07,-15C1467.3,-15 1481.92,-15 1489.92,-15"/>
</g>
<!-- node_48&#45;&#45;node_49 -->
<g id="edge62" class="edge">
<title>node_48&#45;&#45;node_49</title>
<path fill="none" stroke="black" d="M1497,-50C1497,-40.67 1497,-31.34 1497,-22.01"/>
</g>
<!-- node_68 -->
<g id="node69" class="node">
<title>node_68</title>
<ellipse fill="black" stroke="black" cx="2461" cy="-54" rx="3.5" ry="3.5"/>
</g>
<!-- node_48&#45;&#45;node_68 -->
<g id="edge86" class="edge">
<title>node_48&#45;&#45;node_68</title>
<path fill="none" stroke="black" d="M1500.62,-54C1513.44,-54 1570.92,-54 1618,-54 1618,-54 1618,-54 2340,-54 2387.08,-54 2444.56,-54 2457.38,-54"/>
</g>
<!-- node_50 -->
<g id="node51" class="node">
<title>node_50</title>
<polygon fill="white" stroke="black" points="1576,-26 1540,-26 1540,-4 1576,-4 1576,-26"/>
<text text-anchor="middle" x="1558" y="-11.9" font-family="Migu 1M" font-size="12.00">H</text>
</g>
<!-- node_49&#45;&#45;node_50 -->
<g id="edge63" class="edge">
<title>node_49&#45;&#45;node_50</title>
<path fill="none" stroke="black" d="M1504.31,-15C1512.76,-15 1528.04,-15 1539.98,-15"/>
</g>
<!-- node_52 -->
<g id="node53" class="node">
<title>node_52</title>
<ellipse fill="white" stroke="black" cx="1619" cy="-17" rx="7" ry="7"/>
<text text-anchor="middle" x="1619" y="-13.9" font-family="Migu 1M" font-size="12.00">+</text>
</g>
<!-- node_50&#45;&#45;node_52 -->
<g id="edge65" class="edge">
<title>node_50&#45;&#45;node_52</title>
<path fill="none" stroke="black" d="M1576.07,-15.58C1588.04,-15.98 1603.37,-16.5 1611.78,-16.79"/>
</g>
<!-- node_51&#45;&#45;node_52 -->
<g id="edge66" class="edge">
<title>node_51&#45;&#45;node_52</title>
<path fill="none" stroke="black" d="M1619,-126.28C1619,-92.2 1619,-58.13 1619,-24.06"/>
</g>
<!-- node_62 -->
<g id="node63" class="node">
<title>node_62</title>
<ellipse fill="black" stroke="black" cx="2195" cy="-130" rx="3.5" ry="3.5"/>
</g>
<!-- node_51&#45;&#45;node_62 -->
<g id="edge78" class="edge">
<title>node_51&#45;&#45;node_62</title>
<path fill="none" stroke="black" d="M1622.7,-130C1634.95,-130 1686.61,-130 1729,-130 1729,-130 1729,-130 2052,-130 2108.21,-130 2176.93,-130 2191.29,-130"/>
</g>
<!-- node_54 -->
<g id="node55" class="node">
<title>node_54</title>
<ellipse fill="white" stroke="black" cx="1669" cy="-17" rx="7" ry="7"/>
<text text-anchor="middle" x="1669" y="-13.9" font-family="Migu 1M" font-size="12.00">+</text>
</g>
<!-- node_52&#45;&#45;node_54 -->
<g id="edge68" class="edge">
<title>node_52&#45;&#45;node_54</title>
<path fill="none" stroke="black" d="M1626.28,-17C1635.53,-17 1652.71,-17 1661.88,-17"/>
</g>
<!-- node_53&#45;&#45;node_54 -->
<g id="edge69" class="edge">
<title>node_53&#45;&#45;node_54</title>
<path fill="none" stroke="black" d="M1669,-164.35C1669,-117.59 1669,-70.83 1669,-24.08"/>
</g>
<!-- node_59 -->
<g id="node60" class="node">
<title>node_59</title>
<ellipse fill="black" stroke="black" cx="2051" cy="-168" rx="3.5" ry="3.5"/>
</g>
<!-- node_53&#45;&#45;node_59 -->
<g id="edge74" class="edge">
<title>node_53&#45;&#45;node_59</title>
<path fill="none" stroke="black" d="M1672.71,-168C1687.07,-168 1755.79,-168 1812,-168 1812,-168 1812,-168 1897,-168 1958.09,-168 2032.91,-168 2047.48,-168"/>
</g>
<!-- node_55 -->
<g id="node56" class="node">
<title>node_55</title>
<polygon fill="white" stroke="black" points="1748,-26 1712,-26 1712,-4 1748,-4 1748,-26"/>
<text text-anchor="middle" x="1730" y="-11.9" font-family="Migu 1M" font-size="12.00">H</text>
</g>
<!-- node_54&#45;&#45;node_55 -->
<g id="edge70" class="edge">
<title>node_54&#45;&#45;node_55</title>
<path fill="none" stroke="black" d="M1676.31,-16.79C1684.76,-16.5 1700.04,-15.98 1711.98,-15.58"/>
</g>
<!-- node_56 -->
<g id="node57" class="node">
<title>node_56</title>
<polygon fill="white" stroke="black" points="1842,-26 1784,-26 1784,-4 1842,-4 1842,-26"/>
<text text-anchor="middle" x="1813" y="-11.9" font-family="Migu 1M" font-size="12.00">RZ(π/4)</text>
</g>
<!-- node_55&#45;&#45;node_56 -->
<g id="edge71" class="edge">
<title>node_55&#45;&#45;node_56</title>
<path fill="none" stroke="black" d="M1748.18,-15C1758.49,-15 1771.86,-15 1783.69,-15"/>
</g>
<!-- node_57 -->
<g id="node58" class="node">
<title>node_57</title>
<polygon fill="white" stroke="black" points="1914,-26 1878,-26 1878,-4 1914,-4 1914,-26"/>
<text text-anchor="middle" x="1896" y="-11.9" font-family="Migu 1M" font-size="12.00">H</text>
</g>
<!-- node_56&#45;&#45;node_57 -->
<g id="edge72" class="edge">
<title>node_56&#45;&#45;node_57</title>
<path fill="none" stroke="black" d="M1842.33,-15C1854.19,-15 1867.59,-15 1877.9,-15"/>
</g>
<!-- node_58 -->
<g id="node59" class="node">
<title>node_58</title>
<polygon fill="white" stroke="black" points="2008,-26 1950,-26 1950,-4 2008,-4 2008,-26"/>
<text text-anchor="middle" x="1979" y="-11.9" font-family="Migu 1M" font-size="12.00">RZ(7π/4)</text>
</g>
<!-- node_57&#45;&#45;node_58 -->
<g id="edge73" class="edge">
<title>node_57&#45;&#45;node_58</title>
<path fill="none" stroke="black" d="M1914.18,-15C1924.49,-15 1937.86,-15 1949.69,-15"/>
</g>
<!-- node_60 -->
<g id="node61" class="node">
<title>node_60</title>
<ellipse fill="white" stroke="black" cx="2051" cy="-15" rx="7" ry="7"/>
<text text-anchor="middle" x="2051" y="-11.9" font-family="Migu 1M" font-size="12.00">+</text>
</g>
<!-- node_58&#45;&#45;node_60 -->
<g id="edge75" class="edge">
<title>node_58&#45;&#45;node_60</title>
<path fill="none" stroke="black" d="M2008.07,-15C2021.3,-15 2035.92,-15 2043.92,-15"/>
</g>
<!-- node_59&#45;&#45;node_60 -->
<g id="edge76" class="edge">
<title>node_59&#45;&#45;node_60</title>
<path fill="none" stroke="black" d="M2051,-164.3C2051,-116.92 2051,-69.55 2051,-22.17"/>
</g>
<!-- node_65 -->
<g id="node66" class="node">
<title>node_65</title>
<ellipse fill="black" stroke="black" cx="2339" cy="-168" rx="3.5" ry="3.5"/>
</g>
<!-- node_59&#45;&#45;node_65 -->
<g id="edge82" class="edge">
<title>node_59&#45;&#45;node_65</title>
<path fill="none" stroke="black" d="M2054.83,-168C2082.79,-168 2309.07,-168 2335.49,-168"/>
</g>
<!-- node_61 -->
<g id="node62" class="node">
<title>node_61</title>
<polygon fill="white" stroke="black" points="2152,-26 2094,-26 2094,-4 2152,-4 2152,-26"/>
<text text-anchor="middle" x="2123" y="-11.9" font-family="Migu 1M" font-size="12.00">RZ(π/4)</text>
</g>
<!-- node_60&#45;&#45;node_61 -->
<g id="edge77" class="edge">
<title>node_60&#45;&#45;node_61</title>
<path fill="none" stroke="black" d="M2058.46,-15C2066.52,-15 2080.81,-15 2093.81,-15"/>
</g>
<!-- node_63 -->
<g id="node64" class="node">
<title>node_63</title>
<ellipse fill="white" stroke="black" cx="2195" cy="-15" rx="7" ry="7"/>
<text text-anchor="middle" x="2195" y="-11.9" font-family="Migu 1M" font-size="12.00">+</text>
</g>
<!-- node_61&#45;&#45;node_63 -->
<g id="edge79" class="edge">
<title>node_61&#45;&#45;node_63</title>
<path fill="none" stroke="black" d="M2152.07,-15C2165.3,-15 2179.92,-15 2187.92,-15"/>
</g>
<!-- node_62&#45;&#45;node_6 -->
<g id="edge109" class="edge">
<title>node_62&#45;&#45;node_6</title>
<path fill="none" stroke="black" d="M2198.71,-130C2213.07,-130 2281.79,-130 2338,-130 2338,-130 2338,-130 2772,-130 2829.73,-130 2898.16,-130.55 2929.61,-130.83"/>
</g>
<!-- node_62&#45;&#45;node_63 -->
<g id="edge80" class="edge">
<title>node_62&#45;&#45;node_63</title>
<path fill="none" stroke="black" d="M2195,-126.21C2195,-91.54 2195,-56.86 2195,-22.19"/>
</g>
<!-- node_64 -->
<g id="node65" class="node">
<title>node_64</title>
<polygon fill="white" stroke="black" points="2296,-26 2238,-26 2238,-4 2296,-4 2296,-26"/>
<text text-anchor="middle" x="2267" y="-11.9" font-family="Migu 1M" font-size="12.00">RZ(7π/4)</text>
</g>
<!-- node_63&#45;&#45;node_64 -->
<g id="edge81" class="edge">
<title>node_63&#45;&#45;node_64</title>
<path fill="none" stroke="black" d="M2202.46,-15C2210.52,-15 2224.81,-15 2237.81,-15"/>
</g>
<!-- node_66 -->
<g id="node67" class="node">
<title>node_66</title>
<ellipse fill="white" stroke="black" cx="2339" cy="-15" rx="7" ry="7"/>
<text text-anchor="middle" x="2339" y="-11.9" font-family="Migu 1M" font-size="12.00">+</text>
</g>
<!-- node_64&#45;&#45;node_66 -->
<g id="edge83" class="edge">
<title>node_64&#45;&#45;node_66</title>
<path fill="none" stroke="black" d="M2296.07,-15C2309.3,-15 2323.92,-15 2331.92,-15"/>
</g>
<!-- node_65&#45;&#45;node_66 -->
<g id="edge84" class="edge">
<title>node_65&#45;&#45;node_66</title>
<path fill="none" stroke="black" d="M2339,-164.3C2339,-116.92 2339,-69.55 2339,-22.17"/>
</g>
<!-- node_74 -->
<g id="node75" class="node">
<title>node_74</title>
<ellipse fill="black" stroke="black" cx="2594" cy="-165" rx="3.5" ry="3.5"/>
</g>
<!-- node_65&#45;&#45;node_74 -->
<g id="edge94" class="edge">
<title>node_65&#45;&#45;node_74</title>
<path fill="none" stroke="black" d="M2342.5,-167.97C2367.14,-167.68 2565.75,-165.32 2590.48,-165.03"/>
</g>
<!-- node_67 -->
<g id="node68" class="node">
<title>node_67</title>
<polygon fill="white" stroke="black" points="2418,-26 2382,-26 2382,-4 2418,-4 2418,-26"/>
<text text-anchor="middle" x="2400" y="-11.9" font-family="Migu 1M" font-size="12.00">H</text>
</g>
<!-- node_66&#45;&#45;node_67 -->
<g id="edge85" class="edge">
<title>node_66&#45;&#45;node_67</title>
<path fill="none" stroke="black" d="M2346.31,-15C2354.76,-15 2370.04,-15 2381.98,-15"/>
</g>
<!-- node_69 -->
<g id="node70" class="node">
<title>node_69</title>
<ellipse fill="white" stroke="black" cx="2461" cy="-18" rx="7" ry="7"/>
<text text-anchor="middle" x="2461" y="-14.9" font-family="Migu 1M" font-size="12.00">+</text>
</g>
<!-- node_67&#45;&#45;node_69 -->
<g id="edge87" class="edge">
<title>node_67&#45;&#45;node_69</title>
<path fill="none" stroke="black" d="M2418.07,-15.87C2430.04,-16.48 2445.37,-17.26 2453.78,-17.68"/>
</g>
<!-- node_68&#45;&#45;node_69 -->
<g id="edge88" class="edge">
<title>node_68&#45;&#45;node_69</title>
<path fill="none" stroke="black" d="M2461,-50.38C2461,-41.93 2461,-33.48 2461,-25.03"/>
</g>
<!-- node_73 -->
<g id="node74" class="node">
<title>node_73</title>
<polygon fill="white" stroke="black" points="2540,-65 2504,-65 2504,-43 2540,-43 2540,-65"/>
<text text-anchor="middle" x="2522" y="-50.9" font-family="Migu 1M" font-size="12.00">H</text>
</g>
<!-- node_68&#45;&#45;node_73 -->
<g id="edge93" class="edge">
<title>node_68&#45;&#45;node_73</title>
<path fill="none" stroke="black" d="M2464.54,-54C2471.24,-54 2489.89,-54 2503.93,-54"/>
</g>
<!-- node_71 -->
<g id="node72" class="node">
<title>node_71</title>
<ellipse fill="white" stroke="black" cx="2522" cy="-18" rx="7" ry="7"/>
<text text-anchor="middle" x="2522" y="-14.9" font-family="Migu 1M" font-size="12.00">+</text>
</g>
<!-- node_69&#45;&#45;node_71 -->
<g id="edge90" class="edge">
<title>node_69&#45;&#45;node_71</title>
<path fill="none" stroke="black" d="M2468.31,-18C2479.73,-18 2503.66,-18 2514.91,-18"/>
</g>
<!-- node_70&#45;&#45;node_71 -->
<g id="edge91" class="edge">
<title>node_70&#45;&#45;node_71</title>
<path fill="none" stroke="black" d="M2518.59,-89.78C2511.04,-86.88 2493.02,-78.73 2486,-65 2481.55,-56.29 2481.47,-51.66 2486,-43 2492.14,-31.27 2506.56,-23.93 2515.17,-20.44"/>
</g>
<!-- node_81 -->
<g id="node82" class="node">
<title>node_81</title>
<polygon fill="white" stroke="black" points="2612,-102 2576,-102 2576,-80 2612,-80 2612,-102"/>
<text text-anchor="middle" x="2594" y="-87.9" font-family="Migu 1M" font-size="12.00">H</text>
</g>
<!-- node_70&#45;&#45;node_81 -->
<g id="edge102" class="edge">
<title>node_70&#45;&#45;node_81</title>
<path fill="none" stroke="black" d="M2525.66,-91C2533.75,-91 2558.57,-91 2575.7,-91"/>
</g>
<!-- node_72 -->
<g id="node73" class="node">
<title>node_72</title>
<polygon fill="white" stroke="black" points="2612,-27 2576,-27 2576,-5 2612,-5 2612,-27"/>
<text text-anchor="middle" x="2594" y="-12.9" font-family="Migu 1M" font-size="12.00">H</text>
</g>
<!-- node_71&#45;&#45;node_72 -->
<g id="edge92" class="edge">
<title>node_71&#45;&#45;node_72</title>
<path fill="none" stroke="black" d="M2529.46,-17.82C2539.88,-17.52 2560.76,-16.92 2575.74,-16.49"/>
</g>
<!-- node_77 -->
<g id="node78" class="node">
<title>node_77</title>
<polygon fill="white" stroke="black" points="2706,-24 2648,-24 2648,-2 2706,-2 2706,-24"/>
<text text-anchor="middle" x="2677" y="-9.9" font-family="Migu 1M" font-size="12.00">RZ(π/4)</text>
</g>
<!-- node_72&#45;&#45;node_77 -->
<g id="edge98" class="edge">
<title>node_72&#45;&#45;node_77</title>
<path fill="none" stroke="black" d="M2612.18,-15.36C2622.49,-14.98 2635.86,-14.49 2647.69,-14.05"/>
</g>
<!-- node_75 -->
<g id="node76" class="node">
<title>node_75</title>
<ellipse fill="white" stroke="black" cx="2594" cy="-54" rx="7" ry="7"/>
<text text-anchor="middle" x="2594" y="-50.9" font-family="Migu 1M" font-size="12.00">+</text>
</g>
<!-- node_73&#45;&#45;node_75 -->
<g id="edge95" class="edge">
<title>node_73&#45;&#45;node_75</title>
<path fill="none" stroke="black" d="M2540.3,-54C2555.36,-54 2576.36,-54 2586.71,-54"/>
</g>
<!-- node_74&#45;&#45;node_75 -->
<g id="edge96" class="edge">
<title>node_74&#45;&#45;node_75</title>
<path fill="none" stroke="black" d="M2590.58,-163.44C2582.99,-159.76 2564.9,-149.74 2558,-135 2547.63,-112.86 2546.87,-101.76 2558,-80 2564.11,-68.06 2578.54,-60.34 2587.17,-56.62"/>
</g>
<!-- node_82 -->
<g id="node83" class="node">
<title>node_82</title>
<ellipse fill="black" stroke="black" cx="2677" cy="-165" rx="3.5" ry="3.5"/>
</g>
<!-- node_74&#45;&#45;node_82 -->
<g id="edge103" class="edge">
<title>node_74&#45;&#45;node_82</title>
<path fill="none" stroke="black" d="M2597.7,-165C2609.99,-165 2660.72,-165 2673.21,-165"/>
</g>
<!-- node_76 -->
<g id="node77" class="node">
<title>node_76</title>
<polygon fill="white" stroke="black" points="2695,-64 2659,-64 2659,-42 2695,-42 2695,-64"/>
<text text-anchor="middle" x="2677" y="-49.9" font-family="Migu 1M" font-size="12.00">H</text>
</g>
<!-- node_75&#45;&#45;node_76 -->
<g id="edge97" class="edge">
<title>node_75&#45;&#45;node_76</title>
<path fill="none" stroke="black" d="M2601.09,-53.92C2613.23,-53.77 2640.84,-53.43 2658.93,-53.21"/>
</g>
<!-- node_79 -->
<g id="node80" class="node">
<title>node_79</title>
<polygon fill="white" stroke="black" points="2800,-62 2742,-62 2742,-40 2800,-40 2800,-62"/>
<text text-anchor="middle" x="2771" y="-47.9" font-family="Migu 1M" font-size="12.00">RZ(π/4)</text>
</g>
<!-- node_76&#45;&#45;node_79 -->
<g id="edge100" class="edge">
<title>node_76&#45;&#45;node_79</title>
<path fill="none" stroke="black" d="M2695.3,-52.62C2708.42,-52.34 2726.72,-51.94 2741.92,-51.61"/>
</g>
<!-- node_78 -->
<g id="node79" class="node">
<title>node_78</title>
<polygon fill="white" stroke="black" points="2883,-22 2847,-22 2847,0 2883,0 2883,-22"/>
<text text-anchor="middle" x="2865" y="-7.9" font-family="Migu 1M" font-size="12.00">H</text>
</g>
<!-- node_77&#45;&#45;node_78 -->
<g id="edge99" class="edge">
<title>node_77&#45;&#45;node_78</title>
<path fill="none" stroke="black" d="M2706.25,-12.7C2745.27,-12.28 2814.5,-11.53 2846.67,-11.19"/>
</g>
<!-- node_78&#45;&#45;node_9 -->
<g id="edge112" class="edge">
<title>node_78&#45;&#45;node_9</title>
<path fill="none" stroke="black" d="M2883.18,-11C2896.92,-11 2916.11,-11 2929.85,-11"/>
</g>
<!-- node_80 -->
<g id="node81" class="node">
<title>node_80</title>
<polygon fill="white" stroke="black" points="2883,-62 2847,-62 2847,-40 2883,-40 2883,-62"/>
<text text-anchor="middle" x="2865" y="-47.9" font-family="Migu 1M" font-size="12.00">H</text>
</g>
<!-- node_79&#45;&#45;node_80 -->
<g id="edge101" class="edge">
<title>node_79&#45;&#45;node_80</title>
<path fill="none" stroke="black" d="M2800.1,-51C2815.32,-51 2833.64,-51 2846.75,-51"/>
</g>
<!-- node_80&#45;&#45;node_8 -->
<g id="edge111" class="edge">
<title>node_80&#45;&#45;node_8</title>
<path fill="none" stroke="black" d="M2883.18,-51C2896.92,-51 2916.11,-51 2929.85,-51"/>
</g>
<!-- node_83 -->
<g id="node84" class="node">
<title>node_83</title>
<ellipse fill="white" stroke="black" cx="2677" cy="-91" rx="7" ry="7"/>
<text text-anchor="middle" x="2677" y="-87.9" font-family="Migu 1M" font-size="12.00">+</text>
</g>
<!-- node_81&#45;&#45;node_83 -->
<g id="edge104" class="edge">
<title>node_81&#45;&#45;node_83</title>
<path fill="none" stroke="black" d="M2612.18,-91C2630.2,-91 2657.56,-91 2669.75,-91"/>
</g>
<!-- node_82&#45;&#45;node_5 -->
<g id="edge108" class="edge">
<title>node_82&#45;&#45;node_5</title>
<path fill="none" stroke="black" d="M2680.66,-165.06C2704.02,-165.58 2874.44,-169.38 2929.73,-170.61"/>
</g>
<!-- node_82&#45;&#45;node_83 -->
<g id="edge105" class="edge">
<title>node_82&#45;&#45;node_83</title>
<path fill="none" stroke="black" d="M2677,-161.35C2677,-140.31 2677,-119.27 2677,-98.23"/>
</g>
<!-- node_84 -->
<g id="node85" class="node">
<title>node_84</title>
<polygon fill="white" stroke="black" points="2789,-102 2753,-102 2753,-80 2789,-80 2789,-102"/>
<text text-anchor="middle" x="2771" y="-87.9" font-family="Migu 1M" font-size="12.00">H</text>
</g>
<!-- node_83&#45;&#45;node_84 -->
<g id="edge106" class="edge">
<title>node_83&#45;&#45;node_84</title>
<path fill="none" stroke="black" d="M2684.04,-91C2697.79,-91 2731.87,-91 2752.75,-91"/>
</g>
<!-- node_85 -->
<g id="node86" class="node">
<title>node_85</title>
<polygon fill="white" stroke="black" points="2894,-102 2836,-102 2836,-80 2894,-80 2894,-102"/>
<text text-anchor="middle" x="2865" y="-87.9" font-family="Migu 1M" font-size="12.00">RZ(π/4)</text>
</g>
<!-- node_84&#45;&#45;node_85 -->
<g id="edge107" class="edge">
<title>node_84&#45;&#45;node_85</title>
<path fill="none" stroke="black" d="M2789.3,-91C2802.42,-91 2820.72,-91 2835.92,-91"/>
</g>
<!-- node_85&#45;&#45;node_7 -->
<g id="edge110" class="edge">
<title>node_85&#45;&#45;node_7</title>
<path fill="none" stroke="black" d="M2894.33,-91C2906.19,-91 2919.59,-91 2929.9,-91"/>
</g>
</g>
</svg>
